<svg xmlns="http://www.w3.org/2000/svg" width="16.814" height="10.649" viewBox="0 0 16.814 10.649">
  <path id="Path_6723" data-name="Path 6723" d="M13.385,7.08c4.148,0,3.652,4.371,3.63,4.514V11.6h-5.4a1.689,1.689,0,0,0,1.833,1.812c1.675,0,1.675-1.05,1.668-1.114h1.84c0,2.969-3.573,2.768-3.573,2.768a3.7,3.7,0,0,1-4-3.982v-.014c0-.266.144-3.99,4-3.99ZM.23,4.42H5.657A2.663,2.663,0,0,1,8.6,7.2,1.8,1.8,0,0,1,7.023,9.186c2.092,0,1.941,2.588,1.941,2.588a3.05,3.05,0,0,1-3.242,3.077H.237V4.427h0Zm5.427,5.794H2.624V13H5.506c.431-.007,1.251-.137,1.251-1.351,0-1.344-.949-1.431-1.078-1.438H5.665ZM13.421,8.6a1.85,1.85,0,0,0-1.826,1.6h3.422v-.014A1.535,1.535,0,0,0,13.428,8.6ZM5.665,6.275H2.624V8.6H5.47c.489,0,.927-.158.927-1.244,0-.992-.618-1.078-.719-1.078H5.665Zm9.784-1.236V6.325h-4.3V5.038Z" transform="translate(-0.23 -4.42)" fill="#333"/>
</svg>
