<svg xmlns="http://www.w3.org/2000/svg" width="17.252" height="17.252" viewBox="0 0 17.252 17.252">
  <path id="Path_6721" data-name="Path 6721" d="M15.98,0H1.272A1.258,1.258,0,0,0,0,1.236v14.78a1.258,1.258,0,0,0,1.272,1.236H15.98a1.254,1.254,0,0,0,1.272-1.236V1.236A1.258,1.258,0,0,0,15.98,0ZM5.226,14.449h-2.6V6.642h2.6ZM3.932,5.578H3.911A1.349,1.349,0,1,1,3.946,2.89a1.349,1.349,0,1,1-.022,2.688Zm10.689,8.871H12.012V10.28c0-1.042-.374-1.761-1.316-1.761a1.441,1.441,0,0,0-1.344.949,1.694,1.694,0,0,0-.079.633v4.349h-2.6s.036-7.059,0-7.792H9.28V7.764A2.588,2.588,0,0,1,11.624,6.47c1.718,0,3,1.121,3,3.515v4.464Z" fill="#333"/>
</svg>
