<svg xmlns="http://www.w3.org/2000/svg" width="17.252" height="17.252" viewBox="0 0 17.252 17.252">
  <path id="Path_6719" data-name="Path 6719" d="M12.2,0a4.958,4.958,0,0,1,3.651,1.423,4.987,4.987,0,0,1,1.394,3.622V12.2a5,5,0,0,1-1.423,3.686,5.131,5.131,0,0,1-3.651,1.358h-7.1a5.073,5.073,0,0,1-3.615-1.358A5,5,0,0,1,0,12.172V5.043A4.76,4.76,0,0,1,5.043,0Zm.036,1.6H5.072a3.548,3.548,0,0,0-2.537.9A3.464,3.464,0,0,0,1.6,5.043v7.129a3.5,3.5,0,0,0,.934,2.573,3.593,3.593,0,0,0,2.537.9h7.1a3.593,3.593,0,0,0,2.537-.9A3.4,3.4,0,0,0,15.715,12.2V5.043a3.593,3.593,0,0,0-.934-2.508A3.464,3.464,0,0,0,12.237,1.6ZM8.622,4.138A4.455,4.455,0,1,1,4.167,8.593,4.482,4.482,0,0,1,8.622,4.138Zm0,1.6a2.853,2.853,0,1,0,2.853,2.853A2.867,2.867,0,0,0,8.622,5.733ZM13.25,3.024A1.006,1.006,0,1,1,12.244,4.03,1.006,1.006,0,0,1,13.25,3.024Z" transform="translate(0.005 0.004)" fill="#333"/>
</svg>
