<svg xmlns="http://www.w3.org/2000/svg" width="17.253" height="17.351" viewBox="0 0 17.253 17.351">
  <path id="Path_6724" data-name="Path 6724" d="M17.08,6.85A8.629,8.629,0,1,0,2.523,14.693a8.712,8.712,0,0,0,4.363,2.351A8.647,8.647,0,0,0,17.08,6.85ZM15.994,8.518a17.157,17.157,0,0,0-5.133-.244q-.3-.732-.647-1.445a9.435,9.435,0,0,0,4.1-2.919,7.332,7.332,0,0,1,1.682,4.6Zm-2.5-5.463A8,8,0,0,1,9.647,5.729a37.423,37.423,0,0,0-2.753-4.3,7.354,7.354,0,0,1,6.6,1.632ZM5.485,1.934A44.281,44.281,0,0,1,8.216,6.175a27.252,27.252,0,0,1-6.8.906A7.4,7.4,0,0,1,5.485,1.934ZM1.258,8.59l.007-.23a27.4,27.4,0,0,0,7.562-1.05c.216.41.417.827.6,1.251l-.288.086a11.682,11.682,0,0,0-6,4.859A7.339,7.339,0,0,1,1.265,8.59Zm7.368,7.368a7.332,7.332,0,0,1-4.694-1.689L4.1,14.4a9.977,9.977,0,0,1,5.78-4.6l.05-.014a30.652,30.652,0,0,1,1.581,5.593,7.332,7.332,0,0,1-2.883.575ZM12.745,14.7a31.17,31.17,0,0,0-1.438-5.262,10.651,10.651,0,0,1,4.593.323A7.375,7.375,0,0,1,12.738,14.7Z" transform="translate(0.001 0.128)" fill="#333"/>
</svg>
