<svg xmlns="http://www.w3.org/2000/svg" width="17.252" height="14.377" viewBox="0 0 17.252 14.377">
  <path id="Path_6732" data-name="Path 6732" d="M17.252,3.7a6.9,6.9,0,0,1-2.034.575,3.623,3.623,0,0,0,1.56-2.013,6.8,6.8,0,0,1-2.25.877A3.494,3.494,0,0,0,11.94,2,3.587,3.587,0,0,0,8.5,6.457a9.97,9.97,0,0,1-7.3-3.8A3.68,3.68,0,0,0,2.3,7.514a3.465,3.465,0,0,1-1.6-.46V7.1a3.619,3.619,0,0,0,2.839,3.558,3.479,3.479,0,0,1-1.6.058,3.56,3.56,0,0,0,3.307,2.523A6.987,6.987,0,0,1,0,14.752a9.834,9.834,0,0,0,5.427,1.625c6.513,0,10.064-5.535,10.064-10.33V5.58A7.3,7.3,0,0,0,17.252,3.7Z" transform="translate(0 -2)" fill="#333"/>
</svg>
