<svg xmlns="http://www.w3.org/2000/svg" width="17.252" height="12.235" viewBox="0 0 17.252 12.235">
  <path id="Path_6720" data-name="Path 6720" d="M8.655,3.5a50.121,50.121,0,0,1,6.714.359A2.171,2.171,0,0,1,16.893,5.4a23.106,23.106,0,0,1,.359,4.205v.029a22.322,22.322,0,0,1-.359,4.169,2.171,2.171,0,0,1-1.524,1.553,49.332,49.332,0,0,1-6.685.367H8.562a49.053,49.053,0,0,1-6.678-.359,2.171,2.171,0,0,1-1.524-1.56A21.771,21.771,0,0,1,0,9.78V9.421A21.771,21.771,0,0,1,.359,5.395,2.171,2.171,0,0,1,1.883,3.857,49.1,49.1,0,0,1,8.6,3.49ZM6.858,7.02v5.161l4.514-2.573L6.858,7.027Z" transform="translate(0 -3.49)" fill="#333"/>
</svg>
