<svg xmlns="http://www.w3.org/2000/svg" width="14.128" height="12.28" viewBox="0 0 14.128 12.28">
  <g id="send" transform="translate(0 0)">
    <path id="Path_6474" data-name="Path 6474" d="M14.119,33.993a.414.414,0,0,0-.552-.474L.267,38.6a.414.414,0,0,0,0,.773L4,40.812v4.545a.414.414,0,0,0,.784.186l1.545-3.066,3.771,2.8a.414.414,0,0,0,.643-.212C14.265,33.52,14.113,34.022,14.119,33.993Zm-3.283,1.455L4.357,40.062,1.57,38.986ZM4.83,40.742l5.648-4.022c-4.86,5.127-4.606,4.857-4.627,4.885s.055-.123-1.021,2.011Zm5.294,3.519L6.8,41.8l6-6.332Z" transform="translate(-0.001 -33.492)" fill="#eb8341"/>
  </g>
</svg>
