<svg xmlns="http://www.w3.org/2000/svg" width="19.644" height="17.074" viewBox="0 0 19.644 17.074">
  <g id="send" transform="translate(-3.552 -3.087)">
    <path id="Path_6474" data-name="Path 6474" d="M19.632,34.189a.576.576,0,0,0-.768-.659L.371,40.59a.576.576,0,0,0,0,1.075l5.2,2.006v6.32a.576.576,0,0,0,1.089.259L8.8,45.986l5.243,3.891a.576.576,0,0,0,.893-.294C19.835,33.531,19.623,34.23,19.632,34.189Zm-4.565,2.023L6.058,42.628l-3.876-1.5ZM6.715,43.573l7.853-5.592c-6.757,7.128-6.4,6.753-6.434,6.793-.044.059.076-.171-1.419,2.8Zm7.361,4.894L9.461,45.041l8.345-8.8Z" transform="translate(3.551 -30.404)" fill="#eb8341"/>
  </g>
</svg>
