<svg id="Group_564" data-name="Group 564" xmlns="http://www.w3.org/2000/svg" width="27.973" height="27.973" viewBox="0 0 27.973 27.973">
  <path id="Path_3548" data-name="Path 3548" d="M0,13.986A13.986,13.986,0,1,1,13.986,27.973,13.986,13.986,0,0,1,0,13.986Z" fill="#eb8341"/>
  <path id="Path_3549" data-name="Path 3549" d="M18.467,18.357a2.293,2.293,0,0,0-.423-1.388A2.843,2.843,0,0,0,15.655,16H11.2v9.095h4.154a6.48,6.48,0,0,0,1.3-.122,2.556,2.556,0,0,0,1.041-.457,2.528,2.528,0,0,0,.653-.716,2.627,2.627,0,0,0,.411-1.45,2.385,2.385,0,0,0-.359-1.333,2.067,2.067,0,0,0-1.066-.8,2.209,2.209,0,0,0,.7-.517A2.007,2.007,0,0,0,18.467,18.357Zm6.216-.8H20.733V16.424h3.951Zm-3.49,3.511a1.819,1.819,0,0,1,.475-1.041,1.427,1.427,0,0,1,1.064-.384A1.582,1.582,0,0,1,23.792,20a1.468,1.468,0,0,1,.475,1.064Zm3.142-2.561a2.744,2.744,0,0,1,1.177,1,3.249,3.249,0,0,1,.545,1.391,8.541,8.541,0,0,1,.06,1.335H21.15a1.608,1.608,0,0,0,.714,1.418,1.827,1.827,0,0,0,.983.254,1.525,1.525,0,0,0,.989-.308,1.465,1.465,0,0,0,.368-.463h1.82a2.2,2.2,0,0,1-.661,1.216,3.339,3.339,0,0,1-2.565.98,3.74,3.74,0,0,1-2.4-.827A3.231,3.231,0,0,1,19.356,21.8a3.619,3.619,0,0,1,.939-2.682,3.317,3.317,0,0,1,2.438-.933A3.923,3.923,0,0,1,24.336,18.506Zm-11.3,5.01V21.091h2.27a2.357,2.357,0,0,1,.922.154.975.975,0,0,1,.587.976,1.143,1.143,0,0,1-.606,1.135,2.21,2.21,0,0,1-.934.16Zm0-5.937v2.007H15.28a1.876,1.876,0,0,0,.975-.226.856.856,0,0,0,.375-.8.816.816,0,0,0-.495-.841,3.535,3.535,0,0,0-1.09-.142Z" transform="translate(-4.673 -6.676)" fill="#fff" fill-rule="evenodd"/>
</svg>
