<svg xmlns="http://www.w3.org/2000/svg" width="27.973" height="27.973" viewBox="0 0 27.973 27.973">
  <g id="Layer_2" transform="translate(-7 -6.902)">
    <path id="Path_3545" data-name="Path 3545" d="M150.109,139.937h-8.338a2.415,2.415,0,0,0-2.414,2.414v8.336a2.417,2.417,0,0,0,2.414,2.415h8.338a2.418,2.418,0,0,0,2.414-2.415V142.35A2.416,2.416,0,0,0,150.109,139.937Zm-4.17,10.916a4.334,4.334,0,1,1,4.334-4.334A4.34,4.34,0,0,1,145.94,150.853Zm4.474-7.772a1.026,1.026,0,1,1,1.026-1.025A1.026,1.026,0,0,1,150.414,143.081Zm0,0" transform="translate(-124.953 -125.592)" fill="#eb8341"/>
    <path id="Path_3546" data-name="Path 3546" d="M214.784,212.865a2.5,2.5,0,1,0,2.5,2.5A2.5,2.5,0,0,0,214.784,212.865Zm0,0" transform="translate(-193.797 -194.44)" fill="#eb8341"/>
    <path id="Path_3547" data-name="Path 3547" d="M20.986,6.9A13.986,13.986,0,1,0,34.973,20.888,13.987,13.987,0,0,0,20.986,6.9ZM29.4,25.095a4.249,4.249,0,0,1-4.244,4.246H16.818a4.25,4.25,0,0,1-4.246-4.246V16.758a4.251,4.251,0,0,1,4.246-4.246h8.338A4.25,4.25,0,0,1,29.4,16.758v8.336Zm0,0" transform="translate(0)" fill="#eb8341"/>
  </g>
</svg>
