<svg xmlns="http://www.w3.org/2000/svg" width="27.973" height="27.973" viewBox="0 0 27.973 27.973">
  <g id="Layer_2" transform="translate(-6 -6.879)">
    <path id="Path_3550" data-name="Path 3550" d="M33.973,20.865A13.986,13.986,0,1,1,19.986,6.879,13.987,13.987,0,0,1,33.973,20.865Zm0,0" transform="translate(0 0)" fill="#eb8341"/>
    <path id="Path_3551" data-name="Path 3551" d="M142.23,122.833V128.6h-3.343v-5.38c0-1.351-.482-2.274-1.693-2.274a1.829,1.829,0,0,0-1.714,1.223,2.264,2.264,0,0,0-.111.814V128.6h-3.344s.045-9.112,0-10.055h3.344v1.425c-.006.011-.016.022-.022.033h.022v-.033a3.319,3.319,0,0,1,3.013-1.662C140.582,118.308,142.23,119.746,142.23,122.833Zm-13.7-9.135a1.742,1.742,0,1,0-.044,3.474h.021a1.743,1.743,0,1,0,.023-3.474Zm-1.693,14.9h3.342V118.545h-3.342Zm0,0" transform="translate(-113.888 -100.843)" fill="#f2f2f2"/>
  </g>
</svg>
