<svg id="success_1_" data-name="success (1)" xmlns="http://www.w3.org/2000/svg" width="38.122" height="36.2" viewBox="0 0 38.122 36.2">
  <path id="Path_6814" data-name="Path 6814" d="M355.177,27.26V27.9h1.271V27.26a3.146,3.146,0,0,1,3.177-3.177V22.812a3.146,3.146,0,0,1-3.177-3.177V19h-1.271v.635A3.146,3.146,0,0,1,352,22.812v1.271A3.146,3.146,0,0,1,355.177,27.26Zm.635-5.337a4.381,4.381,0,0,0,1.525,1.525,4.381,4.381,0,0,0-1.525,1.525,4.381,4.381,0,0,0-1.525-1.525A4.381,4.381,0,0,0,355.812,21.923Zm0,0" transform="translate(-324.044 -17.491)" fill="#fff"/>
  <path id="Path_6815" data-name="Path 6815" d="M3.177,187.26v.635H4.448v-.635a3.146,3.146,0,0,1,3.177-3.177v-1.271a3.146,3.146,0,0,1-3.177-3.177V179H3.177v.635A3.146,3.146,0,0,1,0,182.812v1.271A3.146,3.146,0,0,1,3.177,187.26Zm.635-5.337a4.381,4.381,0,0,0,1.525,1.525,4.381,4.381,0,0,0-1.525,1.525,4.381,4.381,0,0,0-1.525-1.525A4.381,4.381,0,0,0,3.812,181.923Zm0,0" transform="translate(0 -164.784)" fill="#fff"/>
  <path id="Path_6816" data-name="Path 6816" d="M67.537,107.194l1.334.127a9.2,9.2,0,0,1-1.271-2.16L66.711,103a2.188,2.188,0,0,0-1.08,2.732A2.125,2.125,0,0,0,67.537,107.194Zm0,0" transform="translate(-60.294 -94.82)" fill="#fff"/>
  <path id="Path_6817" data-name="Path 6817" d="M86.79,9.9a6.838,6.838,0,0,0,5.846,4.384l2.859.254.635,1.588,2.287-.953-.572-1.525,1.969-2.287a7.016,7.016,0,0,0,1.334-6.735L99.752.43a1.69,1.69,0,0,0-.318-.381.7.7,0,0,0-.508,0L85.52,4.878a.661.661,0,0,0-.381.826ZM97.909,1.828c.127.254,3.431,5.528-.063,9.022l-.89-.89c2.8-2.8-.063-7.434-.063-7.5Zm0,0" transform="translate(-78.34 -0.001)" fill="#fff"/>
  <path id="Path_6818" data-name="Path 6818" d="M293.207,25.281l.763-.953a2.1,2.1,0,0,0-.254-2.923,1.383,1.383,0,0,0-.509-.318A1.993,1.993,0,0,0,292,20.96l.826,2.478a8.608,8.608,0,0,1,.381,1.843Zm0,0" transform="translate(-268.809 -19.261)" fill="#fff"/>
  <path id="Path_6819" data-name="Path 6819" d="M215.053,197.545l5.019-2.478a.58.58,0,0,0,.318-.762l-.318-.826-2.986,1.017-.381-1.207,2.922-.953-.762-2.033-3.05,1.017-.381-1.207,2.986-1.017-.762-2.033-3.114,1.017-.381-1.207,3.113-1.017-.508-1.334a.66.66,0,0,0-.826-.381l-7.053,3.05a.672.672,0,0,0-.381.445L208,189.984l2.351,7.053,4.32.508C214.8,197.672,214.926,197.609,215.053,197.545Zm0,0" transform="translate(-191.481 -169.478)" fill="#fff"/>
  <path id="Path_6820" data-name="Path 6820" d="M291.2,362.1l.826,2.415,2.287-.763L293.3,361.4l-1.08.508A1.473,1.473,0,0,1,291.2,362.1Zm0,0" transform="translate(-268.071 -332.696)" fill="#fff"/>
  <path id="Path_6821" data-name="Path 6821" d="M284.4,405.4h-2.542l-2.732.89-2.16,2.033a.58.58,0,0,0-.127.7l.127.381,8.133-3.24-.127-.381a.611.611,0,0,0-.572-.381Zm0,0" transform="translate(-254.787 -373.201)" fill="#fff"/>
  <path id="Path_6822" data-name="Path 6822" d="M132.206,270.351l1.652,5.02-1.144.381-1.652-4.956-1.461.572,2.224,6.671,5.146-2.224-2.16-6.417Zm0,0" transform="translate(-119.308 -248.002)" fill="#fff"/>
  <path id="Path_6823" data-name="Path 6823" d="M16,302.724v8.133l10.039-4.32L23.815,299.8Zm0,0" transform="translate(-14.729 -275.99)" fill="#fff"/>
  <path id="Path_6824" data-name="Path 6824" d="M388.448,179.635V179h-1.271v.635A3.146,3.146,0,0,1,384,182.812v1.271a3.146,3.146,0,0,1,3.177,3.177v.635h1.271v-.635a3.146,3.146,0,0,1,3.177-3.177v-1.271A3.146,3.146,0,0,1,388.448,179.635Zm-.635,5.337a4.38,4.38,0,0,0-1.525-1.525,4.381,4.381,0,0,0,1.525-1.525,4.381,4.381,0,0,0,1.525,1.525A4.381,4.381,0,0,0,387.812,184.972Zm0,0" transform="translate(-353.502 -164.784)" fill="#fff"/>
</svg>
