<svg xmlns="http://www.w3.org/2000/svg" width="96.713" height="69.388" viewBox="0 0 96.713 69.388">
  <g id="book_2" data-name="book 2" transform="translate(0 0)">
    <g id="Group_2000" data-name="Group 2000" transform="translate(0 0)">
      <path id="Path_6770" data-name="Path 6770" d="M94.838,64.077H88.465V61.9a1.875,1.875,0,0,0-1.35-1.875A52.805,52.805,0,0,0,73.6,58.3c-7.5,0-17.715,1.687-25.27,9.373-7.5-7.761-17.79-9.373-25.27-9.373A52.805,52.805,0,0,0,9.542,60.028,1.875,1.875,0,0,0,8.192,61.9v2.156H1.875A1.875,1.875,0,0,0,0,65.933V125.81a1.87,1.87,0,0,0,2.793,1.631c.187-.094,18.934-10.348,45.1-3.749h.45a1.877,1.877,0,0,0,.45,0c26.245-6.655,44.992,3.581,45.1,3.749a1.875,1.875,0,0,0,2.812-1.612V65.952A1.875,1.875,0,0,0,94.838,64.077ZM3.749,122.829v-55H8.23v47.016a1.875,1.875,0,0,0,2.156,1.875A82.037,82.037,0,0,1,22.1,115.78a48.628,48.628,0,0,1,16.01,2.418A68.917,68.917,0,0,0,3.749,122.829ZM22.1,112.05a82.483,82.483,0,0,0-10.2.656V63.384a51.7,51.7,0,0,1,11.117-1.237c7.011,0,16.684,1.612,23.4,9.186l.056,46.7C42.573,115.48,34.962,112.05,22.1,112.05Zm28.12-40.717c6.711-7.5,16.384-9.186,23.4-9.186a51.93,51.93,0,0,1,11.117,1.237v49.322a82.461,82.461,0,0,0-10.142-.675c-12.785,0-20.415,3.431-24.37,5.98Zm42.723,51.5a68.931,68.931,0,0,0-34.437-4.63,48.743,48.743,0,0,1,16.084-2.418,82.011,82.011,0,0,1,11.792.919,1.875,1.875,0,0,0,2.156-1.875v-47h4.48Z" transform="translate(0 -58.303)" fill="#eb8341"/>
    </g>
  </g>
</svg>
