<svg xmlns="http://www.w3.org/2000/svg" width="86.258" height="86.25" viewBox="0 0 86.258 86.25">
  <g id="payment-method" transform="translate(0 0)">
    <g id="Group_2002" data-name="Group 2002" transform="translate(25.734 64.665)">
      <g id="Group_2001" data-name="Group 2001">
        <path id="Path_6771" data-name="Path 6771" d="M156.086,385.212a1.76,1.76,0,0,0-.1-.317,1.711,1.711,0,0,0-.155-.29,1.638,1.638,0,0,0-.465-.465,1.665,1.665,0,0,0-.291-.155,1.586,1.586,0,0,0-.315-.1,1.661,1.661,0,0,0-.657,0,1.636,1.636,0,0,0-.317.1,1.708,1.708,0,0,0-.29.155,1.683,1.683,0,0,0-.62.755,1.634,1.634,0,0,0-.1.317,1.619,1.619,0,0,0,0,.657,1.582,1.582,0,0,0,.1.315,1.555,1.555,0,0,0,.155.291,1.636,1.636,0,0,0,.465.465,1.7,1.7,0,0,0,.29.155,1.628,1.628,0,0,0,.317.1,1.619,1.619,0,0,0,.657,0,1.578,1.578,0,0,0,.315-.1,1.662,1.662,0,0,0,.291-.155,1.636,1.636,0,0,0,.465-.465,1.661,1.661,0,0,0,.155-.291,1.7,1.7,0,0,0,.1-.315,1.619,1.619,0,0,0,0-.657Z" transform="translate(-152.75 -383.857)" fill="#eb8341"/>
      </g>
    </g>
    <g id="Group_2004" data-name="Group 2004" transform="translate(0 52.209)">
      <g id="Group_2003" data-name="Group 2003">
        <path id="Path_6772" data-name="Path 6772" d="M77.5,324.252l-.02-.05c-1.551-3.628-5.187-4.969-9.491-3.5l-11.737,3.246a7.694,7.694,0,0,0-4.765-4.692l-.045-.016-12.9-4.379a13.307,13.307,0,0,0-10.736-4.94c-4.4,0-8.295,3.019-10.522,6.31H1.685A1.685,1.685,0,0,0,0,317.917v21.24a1.685,1.685,0,0,0,1.685,1.685H11.7a1.685,1.685,0,0,0,1.685-1.685V337.7h4.7a1.685,1.685,0,0,0,1.685-1.685v-.485c2.738.239,3.639.758,6.154,2.208a101.955,101.955,0,0,0,10.121,5.168l.074.031a15.122,15.122,0,0,0,5.42,1.022,13.429,13.429,0,0,0,5.582-1.2l25.943-9.289q.069-.025.136-.056C75.678,332.282,79.373,329.067,77.5,324.252ZM10.017,337.473H3.369V319.6h6.647Zm6.382-3.139H13.386V319.6H16.4Zm55.454-4-25.932,9.285-.076.029-.068.029a10.919,10.919,0,0,1-8.39.143,97.594,97.594,0,0,1-9.782-5c-2.757-1.59-4.085-2.356-7.837-2.666V318.588c1.6-2.617,4.694-5.3,8.033-5.3,5.726,0,8.152,3.724,8.247,3.874a1.685,1.685,0,0,0,.894.713l13.389,4.544c2.138.8,3.269,2.634,2.749,4.46a3.283,3.283,0,0,1-4.033,2.266l-15.094-4.783a1.685,1.685,0,0,0-1.018,3.212l15.12,4.792.048.015a6.613,6.613,0,0,0,5.057-.588,6.607,6.607,0,0,0,3.16-3.991q.058-.2.1-.409l12.649-3.5c1.827-.624,4.225-.849,5.293,1.61C75.472,328.388,72.6,329.977,71.853,330.333Z" transform="translate(0 -309.922)" fill="#eb8341"/>
      </g>
    </g>
    <g id="Group_2006" data-name="Group 2006" transform="translate(57.154 20.802)">
      <g id="Group_2005" data-name="Group 2005">
        <path id="Path_6773" data-name="Path 6773" d="M342.587,124.853a1.637,1.637,0,0,0-.1-.317,1.6,1.6,0,0,0-.155-.29,1.636,1.636,0,0,0-.465-.465,1.713,1.713,0,0,0-.29-.155,1.678,1.678,0,0,0-.974-.1,1.583,1.583,0,0,0-.315.1,1.666,1.666,0,0,0-.291.155,1.636,1.636,0,0,0-.465.465,1.71,1.71,0,0,0-.155.29,1.632,1.632,0,0,0-.1.317,1.62,1.62,0,0,0,0,.657,1.582,1.582,0,0,0,.1.315,1.663,1.663,0,0,0,.155.291,1.636,1.636,0,0,0,.465.465,1.666,1.666,0,0,0,.291.155,1.7,1.7,0,0,0,.315.1,1.658,1.658,0,0,0,.328.034,1.689,1.689,0,0,0,.33-.034,1.784,1.784,0,0,0,.315-.1,1.713,1.713,0,0,0,.29-.155,1.636,1.636,0,0,0,.465-.465,1.555,1.555,0,0,0,.155-.291,1.586,1.586,0,0,0,.1-.315,1.7,1.7,0,0,0,0-.657Z" transform="translate(-339.25 -123.498)" fill="#eb8341"/>
      </g>
    </g>
    <g id="Group_2008" data-name="Group 2008" transform="translate(5.002 0)">
      <g id="Group_2007" data-name="Group 2007">
        <path id="Path_6774" data-name="Path 6774" d="M109.262,5.729H99.245A1.685,1.685,0,0,0,97.56,7.414V8.868h-4.7a1.685,1.685,0,0,0-1.685,1.685v.485c-2.738-.239-3.639-.758-6.154-2.208A101.943,101.943,0,0,0,74.9,3.662l-.074-.031a14.333,14.333,0,0,0-11,.173L57.048,6.231,51.334.517a1.685,1.685,0,0,0-2.383,0L30.19,19.277a1.671,1.671,0,0,0,0,2.383L62.249,53.718a1.82,1.82,0,0,0,2.383,0L81.759,36.59c.445.038.907.059,1.386.059,4.4,0,8.295-3.019,10.522-6.31h15.594a1.685,1.685,0,0,0,1.685-1.685V7.414A1.685,1.685,0,0,0,109.262,5.729ZM50.142,4.09l3.84,3.84a7.345,7.345,0,0,1-7.68,0ZM37.6,24.308l-3.84-3.84,3.84-3.84a7.345,7.345,0,0,1,0,7.68ZM63.44,50.144,59.6,46.3a7.335,7.335,0,0,1,7.678,0Zm6.266-6.266a10.706,10.706,0,0,0-12.533,0L40.031,26.735a10.706,10.706,0,0,0,0-12.534l3.844-3.844a10.706,10.706,0,0,0,12.534,0L60.053,14a6.678,6.678,0,0,0-5.013,3.673,9.6,9.6,0,1,0,11.04,11.887l5.688,1.931a10.756,10.756,0,0,0,1.785,8.539ZM59.464,27.315l.045.016,3.369,1.143a6.234,6.234,0,1,1-8.462-7.121A7.459,7.459,0,0,0,59.464,27.315ZM75.981,37.6A7.369,7.369,0,0,1,74.9,34.1a13.1,13.1,0,0,0,2.971,1.609Zm15.2-9.62c-1.6,2.618-4.694,5.3-8.032,5.3a12.263,12.263,0,0,1-1.758-.124h-.007a9.649,9.649,0,0,1-6.241-3.415c-.034-.051-.181-.242-.2-.274a1.679,1.679,0,0,0-.928-.772L60.615,24.148c-2.138-.8-3.268-2.633-2.75-4.458v-.008a3.282,3.282,0,0,1,4.032-2.26l15.094,4.783a1.685,1.685,0,0,0,1.018-3.212l-12-3.8-.1-.1,0,0L59.683,8.866l5.342-1.913.058-.022.018-.007.068-.029a10.919,10.919,0,0,1,8.39-.143,97.59,97.59,0,0,1,9.782,5c2.757,1.59,4.085,2.356,7.837,2.666Zm6.382-1.013H94.547V12.238H97.56Zm10.017,0H100.93V9.1h6.647Z" transform="translate(-29.691 -0.023)" fill="#eb8341"/>
      </g>
    </g>
  </g>
</svg>
