<svg xmlns="http://www.w3.org/2000/svg" width="45.276" height="56.037" viewBox="0 0 45.276 56.037">
  <g id="file" transform="translate(-39.597)">
    <g id="Group_381" data-name="Group 381" transform="translate(39.597)">
      <g id="Group_380" data-name="Group 380">
        <path id="Path_3463" data-name="Path 3463" d="M78.731,0H51.555a6.159,6.159,0,0,0-6.142,6.087A6.145,6.145,0,0,0,39.6,12.229V49.9a6.17,6.17,0,0,0,6.142,6.142H72.915a6.159,6.159,0,0,0,6.142-6.087,6.145,6.145,0,0,0,5.816-6.142V6.2A6.113,6.113,0,0,0,78.731,0ZM77.046,49.9a4.129,4.129,0,0,1-4.131,4.131H45.739a4.071,4.071,0,0,1-4.076-4.076V12.229a4.071,4.071,0,0,1,4.076-4.076H67.7V17.61a1.032,1.032,0,0,0,1.033,1.033h8.316V49.9ZM69.763,16.578V9.783L75.8,16.578Zm9.349,31.361V17.61c0-.109-.054-.272-.054-.38A.19.19,0,0,0,79,17.121c-.054-.054-.054-.109-.109-.163l-9.4-10.544a1.188,1.188,0,0,0-.272-.163c-.054,0-.054-.054-.109-.054a1.024,1.024,0,0,0-.435-.109h-21.2a4.1,4.1,0,0,1,4.076-4.022H78.731a4.071,4.071,0,0,1,4.076,4.076V43.862h.054A4.128,4.128,0,0,1,79.111,47.939Z" transform="translate(-39.597)" fill="#fff"/>
        <path id="Path_3464" data-name="Path 3464" d="M87.43,124.065h9.077a1.033,1.033,0,1,0,0-2.065H87.43a1.032,1.032,0,0,0-1.033,1.033A1,1,0,0,0,87.43,124.065Z" transform="translate(-80.038 -105.422)" fill="#fff"/>
        <path id="Path_3465" data-name="Path 3465" d="M96.452,320.8H87.43a1.033,1.033,0,1,0,0,2.065h9.077a1.032,1.032,0,0,0,1.033-1.033A1.119,1.119,0,0,0,96.452,320.8Z" transform="translate(-80.038 -277.209)" fill="#fff"/>
        <path id="Path_3466" data-name="Path 3466" d="M86.4,173.433a1.032,1.032,0,0,0,1.033,1.033h24.241a1.032,1.032,0,0,0,1.033-1.033,1.069,1.069,0,0,0-1.033-1.033H87.43A1.032,1.032,0,0,0,86.4,173.433Z" transform="translate(-80.038 -148.974)" fill="#fff"/>
        <path id="Path_3467" data-name="Path 3467" d="M111.671,209.6H87.43a1.033,1.033,0,0,0,0,2.065h24.241a1.032,1.032,0,0,0,1.033-1.033A1.069,1.069,0,0,0,111.671,209.6Z" transform="translate(-80.038 -181.119)" fill="#fff"/>
        <path id="Path_3468" data-name="Path 3468" d="M111.671,247.2H87.43a1.033,1.033,0,0,0,0,2.065h24.241a1.033,1.033,0,1,0,0-2.065Z" transform="translate(-80.038 -213.61)" fill="#fff"/>
        <path id="Path_3469" data-name="Path 3469" d="M111.671,284.4H87.43a1.033,1.033,0,1,0,0,2.065h24.241a1.033,1.033,0,1,0,0-2.065Z" transform="translate(-80.038 -245.755)" fill="#fff"/>
      </g>
    </g>
  </g>
</svg>
