<svg id="scroll" xmlns="http://www.w3.org/2000/svg" width="54.689" height="56.454" viewBox="0 0 54.689 56.454">
  <path id="Path_3480" data-name="Path 3480" d="M233.085,377.764a.882.882,0,0,1-.009-1.764h.009a.882.882,0,1,1,0,1.764Zm0,0" transform="translate(-206.597 -334.542)" fill="#fff"/>
  <path id="Path_3481" data-name="Path 3481" d="M64.882,5.293A.881.881,0,0,1,64,4.41,4.416,4.416,0,0,1,68.41,0a.882.882,0,1,1,0,1.764A2.65,2.65,0,0,0,65.764,4.41.881.881,0,0,1,64.882,5.293Zm0,0" transform="translate(-56.943)" fill="#fff"/>
  <path id="Path_3482" data-name="Path 3482" d="M404.41,8.821a4.41,4.41,0,1,1,4.41-4.41A4.416,4.416,0,0,1,404.41,8.821Zm0-7.057a2.646,2.646,0,1,0,2.646,2.646A2.65,2.65,0,0,0,404.41,1.764Zm0,0" transform="translate(-355.896)" fill="#fff"/>
  <path id="Path_3483" data-name="Path 3483" d="M133.93,1.764H96.882a.882.882,0,0,1,0-1.764H133.93a.882.882,0,1,1,0,1.764Zm0,0" transform="translate(-85.415)" fill="#fff"/>
  <path id="Path_3484" data-name="Path 3484" d="M438.175,33.764h-5.293a.882.882,0,0,1,0-1.764h5.293a.882.882,0,0,1,0,1.764Zm0,0" transform="translate(-384.367 -28.472)" fill="#fff"/>
  <path id="Path_3485" data-name="Path 3485" d="M4.41,440.821a4.41,4.41,0,0,1,0-8.821.882.882,0,1,1,0,1.764,2.646,2.646,0,1,0,0,5.293.882.882,0,0,1,0,1.764Zm0,0" transform="translate(0 -384.367)" fill="#fff"/>
  <path id="Path_3486" data-name="Path 3486" d="M340.41,440.821a4.41,4.41,0,1,1,4.41-4.41A4.416,4.416,0,0,1,340.41,440.821Zm0-7.057a2.646,2.646,0,1,0,2.646,2.646A2.65,2.65,0,0,0,340.41,433.764Zm0,0" transform="translate(-298.952 -384.367)" fill="#fff"/>
  <path id="Path_3487" data-name="Path 3487" d="M69.93,497.764H32.882a.882.882,0,1,1,0-1.764H69.93a.882.882,0,1,1,0,1.764Zm0,0" transform="translate(-28.472 -441.311)" fill="#fff"/>
  <path id="Path_3488" data-name="Path 3488" d="M69.93,433.764H32.882a.882.882,0,1,1,0-1.764H69.93a.882.882,0,1,1,0,1.764Zm0,0" transform="translate(-28.472 -384.367)" fill="#fff"/>
  <path id="Path_3489" data-name="Path 3489" d="M374.175,465.764h-5.293a.882.882,0,0,1,0-1.764h5.293a.882.882,0,0,1,0,1.764Zm0,0" transform="translate(-327.424 -412.839)" fill="#fff"/>
  <path id="Path_3490" data-name="Path 3490" d="M64.882,77.868A.881.881,0,0,1,64,76.986v-44.1a.882.882,0,1,1,1.764,0v44.1A.881.881,0,0,1,64.882,77.868Zm0,0" transform="translate(-56.943 -28.472)" fill="#fff"/>
  <path id="Path_3491" data-name="Path 3491" d="M400.882,81.4a.881.881,0,0,1-.882-.882V32.882a.882.882,0,1,1,1.764,0V80.515A.881.881,0,0,1,400.882,81.4Zm0,0" transform="translate(-355.896 -28.472)" fill="#fff"/>
  <path id="Path_3492" data-name="Path 3492" d="M316.41,161.764h-3.528a.882.882,0,0,1,0-1.764h3.528a.882.882,0,0,1,0,1.764Zm0,0" transform="translate(-277.599 -142.358)" fill="#fff"/>
  <path id="Path_3493" data-name="Path 3493" d="M138.524,161.764H120.882a.882.882,0,0,1,0-1.764h17.642a.882.882,0,0,1,0,1.764Zm0,0" transform="translate(-106.769 -142.358)" fill="#fff"/>
  <path id="Path_3494" data-name="Path 3494" d="M195.406,193.764H176.882a.882.882,0,0,1,0-1.764h18.524a.882.882,0,1,1,0,1.764Zm0,0" transform="translate(-156.594 -170.83)" fill="#fff"/>
  <path id="Path_3495" data-name="Path 3495" d="M123.528,193.764h-2.646a.882.882,0,0,1,0-1.764h2.646a.882.882,0,1,1,0,1.764Zm0,0" transform="translate(-106.769 -170.83)" fill="#fff"/>
  <path id="Path_3496" data-name="Path 3496" d="M131.467,129.764H120.882a.882.882,0,0,1,0-1.764h10.585a.882.882,0,0,1,0,1.764Zm0,0" transform="translate(-106.769 -113.887)" fill="#fff"/>
  <path id="Path_3497" data-name="Path 3497" d="M259.467,129.764H248.882a.882.882,0,0,1,0-1.764h10.585a.882.882,0,0,1,0,1.764Zm0,0" transform="translate(-220.655 -113.887)" fill="#fff"/>
  <path id="Path_3498" data-name="Path 3498" d="M316.41,257.764h-3.528a.882.882,0,0,1,0-1.764h3.528a.882.882,0,0,1,0,1.764Zm0,0" transform="translate(-277.599 -227.773)" fill="#fff"/>
  <path id="Path_3499" data-name="Path 3499" d="M138.524,257.764H120.882a.882.882,0,0,1,0-1.764h17.642a.882.882,0,0,1,0,1.764Zm0,0" transform="translate(-106.769 -227.773)" fill="#fff"/>
  <path id="Path_3500" data-name="Path 3500" d="M195.406,289.764H176.882a.882.882,0,1,1,0-1.764h18.524a.882.882,0,1,1,0,1.764Zm0,0" transform="translate(-156.594 -256.245)" fill="#fff"/>
  <path id="Path_3501" data-name="Path 3501" d="M123.528,289.764h-2.646a.882.882,0,1,1,0-1.764h2.646a.882.882,0,1,1,0,1.764Zm0,0" transform="translate(-106.769 -256.245)" fill="#fff"/>
  <path id="Path_3502" data-name="Path 3502" d="M131.467,225.764H120.882a.882.882,0,0,1,0-1.764h10.585a.882.882,0,0,1,0,1.764Zm0,0" transform="translate(-106.769 -199.302)" fill="#fff"/>
  <path id="Path_3503" data-name="Path 3503" d="M259.467,225.764H248.882a.882.882,0,0,1,0-1.764h10.585a.882.882,0,0,1,0,1.764Zm0,0" transform="translate(-220.655 -199.302)" fill="#fff"/>
  <path id="Path_3504" data-name="Path 3504" d="M131.467,321.764H120.882a.882.882,0,0,1,0-1.764h10.585a.882.882,0,0,1,0,1.764Zm0,0" transform="translate(-106.769 -284.717)" fill="#fff"/>
  <path id="Path_3505" data-name="Path 3505" d="M259.467,321.764H248.882a.882.882,0,0,1,0-1.764h10.585a.882.882,0,0,1,0,1.764Zm0,0" transform="translate(-220.655 -284.717)" fill="#fff"/>
  <path id="Path_3506" data-name="Path 3506" d="M145.58,68.41h-24.7a.881.881,0,0,1-.882-.882V64.882a.881.881,0,0,1,.882-.882h24.7a.881.881,0,0,1,.882.882v2.646A.881.881,0,0,1,145.58,68.41Zm-23.816-1.764H144.7v-.882H121.764Zm0,0" transform="translate(-106.769 -56.943)" fill="#fff"/>
  <path id="Path_3507" data-name="Path 3507" d="M127.986,372.246a7.074,7.074,0,0,1-3.109-.876c-2.082-1.042-3.033-.689-3.248-.357a.862.862,0,0,1-1.173.376.9.9,0,0,1-.385-1.2c.053-.1,1.324-2.527,5.594-.395,2.081,1.041,3.032.688,3.248.357a.862.862,0,0,1,1.173-.376.9.9,0,0,1,.385,1.2A2.676,2.676,0,0,1,127.986,372.246Zm0,0" transform="translate(-106.747 -328.241)" fill="#fff"/>
  <path id="Path_3508" data-name="Path 3508" d="M266.578,372.239a2.672,2.672,0,0,1-2.484-1.27.882.882,0,0,1,1.56-.821c.221.329,1.175.673,3.245-.363,4.266-2.133,5.542.29,5.594.395a.882.882,0,0,1-1.578.789c-.2-.3-1.15-.644-3.226.394A7.08,7.08,0,0,1,266.578,372.239Zm0,0" transform="translate(-234.892 -328.234)" fill="#fff"/>
</svg>
