<svg xmlns="http://www.w3.org/2000/svg" width="53.733" height="55.421" viewBox="0 0 53.733 55.421">
  <g id="salary" transform="translate(-7.797 0.001)">
    <g id="Group_438" data-name="Group 438" transform="translate(7.797 -0.001)">
      <path id="Path_3516" data-name="Path 3516" d="M60.931,39.667c-1.034-1.519-2.788-1.89-4.693-.994l-1.01.445a16.7,16.7,0,0,0,1-10.749,25.933,25.933,0,0,0-6.534-11.816.812.812,0,1,0-1.2,1.1A24.341,24.341,0,0,1,54.641,28.72a14.555,14.555,0,0,1-1.905,11.5l-10.1,4.449.008-1.141a.8.8,0,0,0,0-.086,5.087,5.087,0,0,0-4.36-4.544l-.021,0-8.98-1.034c-3.453-.492-4.342-2.561-9.019-3.741a17.474,17.474,0,0,1,1.288-8.588c1.778-4.407,5.256-8.69,10.078-12.417,1.8,1.274,9.815,1.433,11.609-.211.919.7,1.8,1.417,2.614,2.146a.812.812,0,1,0,1.08-1.212c-.9-.8-1.859-1.586-2.87-2.347a2.889,2.889,0,0,0-.969-2.879c2.541-3.855,3.281-6.378,2.26-7.7A1.419,1.419,0,0,0,43.4.607,1.3,1.3,0,0,1,41.843.552a2.918,2.918,0,0,0-3.418,0,1.309,1.309,0,0,1-1.64,0,2.918,2.918,0,0,0-3.418,0A1.292,1.292,0,0,1,31.812.6a1.416,1.416,0,0,0-1.949.29c-1,1.285-.33,3.728,2.04,7.452a2.643,2.643,0,0,0-.413.276,5.48,5.48,0,0,0-4.72-1.784,5.948,5.948,0,0,1-4.038-.955.812.812,0,1,0-.9,1.348A7.559,7.559,0,0,0,26.95,8.45a3.966,3.966,0,0,1,3.625,1.586q-.015.052-.028.1a13.93,13.93,0,0,0-2.574.281A7.622,7.622,0,0,0,22.691,13.8a.812.812,0,1,0,1.4.82c1.48-2.53,5.093-2.839,6.528-2.858.006.018.013.036.02.053-5.121,3.95-8.686,8.355-10.6,13.1a19.266,19.266,0,0,0-1.448,8.862,16.891,16.891,0,0,0-2.357-.182v-.491a2.358,2.358,0,0,0-2.356-2.355H10.153A2.358,2.358,0,0,0,7.8,33.109v18.9a2.358,2.358,0,0,0,2.356,2.356h3.726a2.358,2.358,0,0,0,2.356-2.356v-.231l8.128,3.025a9.725,9.725,0,0,0,3.4.613H39.876A9.74,9.74,0,0,0,45.1,53.9c16.156-10.242,15.175-9.6,15.269-9.688a3.481,3.481,0,0,0,.565-4.551ZM41.709,11.938a17.593,17.593,0,0,1-8.823,0c-1.274-.322-.9-2.594.464-2.251a15.829,15.829,0,0,0,7.895,0C42.59,9.349,43,11.61,41.709,11.938ZM31.071,2.048l.019.009a2.88,2.88,0,0,0,3.166-.147c1.383-.905,1.533.546,3.349.546a2.819,2.819,0,0,0,1.709-.546,1.309,1.309,0,0,1,1.64,0,2.9,2.9,0,0,0,3.18.145c.167.6-.211,2.4-2.618,5.98-1.2-.02-2.93,1.154-7.84.061-2.4-3.63-2.773-5.442-2.605-6.049ZM59.332,42.963l-15.1,9.571A8.119,8.119,0,0,1,39.876,53.8H27.765a8.1,8.1,0,0,1-2.836-.511L16.234,50.05V41.309a.812.812,0,1,0-1.623,0v10.7a.733.733,0,0,1-.732.732H10.153a.733.733,0,0,1-.732-.732v-18.9a.733.733,0,0,1,.732-.732h3.726a.733.733,0,0,1,.732.732v4.4a.812.812,0,1,0,1.623,0V35.223c6.715.051,8.224,3.59,12.824,4.241l.021,0,8.98,1.034a3.467,3.467,0,0,1,2.958,3.055L41.005,45.1H32.631a.812.812,0,1,0,0,1.623h9.18a.84.84,0,0,0,.324-.068l14.767-6.5c1.062-.472,2.03-.539,2.687.426A1.854,1.854,0,0,1,59.332,42.963Z" transform="translate(-7.797 0.001)" fill="#fff"/>
      <path id="Path_3517" data-name="Path 3517" d="M244.474,175.345a.812.812,0,0,0,.812-.812v-1.345a4.756,4.756,0,0,0,3.9-3.935,4.163,4.163,0,0,0-2.868-4.762c-.372-.131-.714-.257-1.029-.378v-5.175a3.338,3.338,0,0,1,1.579.693.812.812,0,0,0,1.1-1.2,5.031,5.031,0,0,0-2.675-1.135v-1.154a.812.812,0,1,0-1.623,0v1.22a5.976,5.976,0,0,0-.6.147,3.925,3.925,0,0,0-2.686,3.081,3.433,3.433,0,0,0,1.115,3.384,9.834,9.834,0,0,0,2.173,1.228v6.419a4.311,4.311,0,0,1-2.524-.875.812.812,0,1,0-.889,1.358,5.945,5.945,0,0,0,3.413,1.14v1.288A.812.812,0,0,0,244.474,175.345ZM242.491,162.7a1.83,1.83,0,0,1-.522-1.806,2.322,2.322,0,0,1,1.559-1.827c.045-.014.09-.025.134-.037v4.384A6.846,6.846,0,0,1,242.491,162.7Zm3.283,3.323a2.555,2.555,0,0,1,1.808,2.963,3.161,3.161,0,0,1-2.3,2.545v-5.683C245.444,165.9,245.6,165.962,245.774,166.021Z" transform="translate(-214.76 -138.518)" fill="#fff"/>
    </g>
  </g>
</svg>
