<svg xmlns="http://www.w3.org/2000/svg" width="55.479" height="55.479" viewBox="0 0 55.479 55.479">
  <g id="repair" transform="translate(0)">
    <path id="Path_3512" data-name="Path 3512" d="M43.974,31.3a2.572,2.572,0,1,0,2.571,2.571A2.575,2.575,0,0,0,43.974,31.3Zm0,3.5a.93.93,0,1,1,.93-.93A.931.931,0,0,1,43.974,34.806Zm0,0" transform="translate(-36.916 -27.913)" fill="#fff"/>
    <path id="Path_3513" data-name="Path 3513" d="M107.6,31.3a2.572,2.572,0,1,0,2.571,2.572A2.575,2.575,0,0,0,107.6,31.3Zm0,3.5a.93.93,0,1,1,.93-.93A.931.931,0,0,1,107.6,34.806Zm0,0" transform="translate(-93.644 -27.913)" fill="#fff"/>
    <path id="Path_3514" data-name="Path 3514" d="M171.22,31.3a2.572,2.572,0,1,0,2.571,2.572A2.575,2.575,0,0,0,171.22,31.3Zm0,3.5a.93.93,0,1,1,.93-.93A.931.931,0,0,1,171.22,34.806Zm0,0" transform="translate(-150.374 -27.913)" fill="#fff"/>
    <path id="Path_3515" data-name="Path 3515" d="M52.47,0H3.009A3.012,3.012,0,0,0,0,3.009v36.22a3.012,3.012,0,0,0,3.009,3.009H8.3a.82.82,0,0,0,.067,1.084l3.943,3.943a16.825,16.825,0,0,0-.774,1.866H5.963a.821.821,0,0,0-.82.821v4.706a.821.821,0,0,0,.82.821h16.2a.821.821,0,0,0,.821-.821,4.541,4.541,0,1,1,9.082,0,.821.821,0,0,0,.821.821h16.2a.821.821,0,0,0,.821-.821V49.953a.821.821,0,0,0-.821-.821H43.5a16.826,16.826,0,0,0-.774-1.866l3.944-3.943a.821.821,0,0,0,.066-1.084h5.732a3.012,3.012,0,0,0,3.009-3.009v-20.3a.821.821,0,1,0-1.641,0v20.3A1.369,1.369,0,0,1,52.469,40.6H45.106L40.269,35.76V30.147a.821.821,0,0,0-.821-.821H37.971V24.269L39.129,23.2a.821.821,0,0,0,.227-.847l-1.969-6.347a.821.821,0,0,0-.784-.577H34.414a.821.821,0,0,0-.784.577L31.66,22.353a.821.821,0,0,0,.227.847l1.158,1.069v5.057H31.569a.821.821,0,0,0-.821.821v2.134H24.292V31.034l3.152-3.152a.82.82,0,0,0,.24-.58v-6.73a.82.82,0,0,0-.244-.584l-4.377-4.322a.821.821,0,0,0-1.4.584v7.316l-2.134,1.343L17.4,23.566V23.1a.821.821,0,0,0-1.641,0v.921a.82.82,0,0,0,.383.695l2.954,1.86a.82.82,0,0,0,.874,0l2.954-1.86a.82.82,0,0,0,.383-.695V18.214l2.736,2.7v6.047l-3.152,3.152a.821.821,0,0,0-.24.581v1.6a.821.821,0,0,0-.656.8v5.576a16.829,16.829,0,0,0-1.867.774l-3.714-3.714V30.694a.821.821,0,0,0-.24-.581l-3.152-3.152V20.915l2.736-2.7v1.041a.821.821,0,0,0,1.641,0v-3a.821.821,0,0,0-1.4-.584l-4.377,4.322a.82.82,0,0,0-.244.584V27.3a.82.82,0,0,0,.24.58l3.152,3.152V35.76L9.935,40.6H3.009a1.369,1.369,0,0,1-1.368-1.368v-27.3h52.2V15.1a.821.821,0,0,0,1.641,0V3.009A3.012,3.012,0,0,0,52.47,0ZM34.424,23.307l-1.042-.962,1.637-5.274H36l1.637,5.274-1.042.962a.821.821,0,0,0-.264.6v5.417H34.688V23.91a.822.822,0,0,0-.265-.6Zm4.2,7.661v4.769l-3.714,3.714a16.914,16.914,0,0,0-1.867-.774V33.1a.821.821,0,0,0-.656-.8V30.968h6.237ZM20.355,41.177a15.2,15.2,0,0,1,2.7-1.12.821.821,0,0,0,.581-.785V33.922H31.4v5.351a.821.821,0,0,0,.581.785,15.2,15.2,0,0,1,2.7,1.12.821.821,0,0,0,.966-.144l3.784-3.784L44.185,42h0l.744.744-3.784,3.784a.821.821,0,0,0-.144.966,15.174,15.174,0,0,1,1.12,2.7.821.821,0,0,0,.785.581h5.351v3.064H39.913a12.426,12.426,0,0,0-17.441-10.53.821.821,0,0,0,.668,1.5,10.785,10.785,0,0,1,15.129,9.03H33.649a6.183,6.183,0,0,0-12.256,0h-4.62a10.663,10.663,0,0,1,3.377-7.043.821.821,0,0,0-1.123-1.2,12.473,12.473,0,0,0-3.9,8.241H6.784V50.774h5.351a.821.821,0,0,0,.785-.581,15.174,15.174,0,0,1,1.12-2.7.821.821,0,0,0-.144-.966l-3.784-3.784L10.855,42h0L15.6,37.249l3.784,3.784a.821.821,0,0,0,.966.144ZM1.641,10.286V3.009A1.369,1.369,0,0,1,3.009,1.641H52.47a1.369,1.369,0,0,1,1.368,1.368v7.277Zm0,0" fill="#fff"/>
  </g>
</svg>
