<svg xmlns="http://www.w3.org/2000/svg" width="55.726" height="55.767" viewBox="0 0 55.726 55.767">
  <g id="contact-form" transform="translate(-0.188)">
    <path id="Path_3442" data-name="Path 3442" d="M53.628,12.367a4.58,4.58,0,0,0-6.249,1.674l-4.058,7.031V15.249a1.089,1.089,0,1,0-2.178,0v9.595L29.179,45.564a1.078,1.078,0,0,0-.139.428l-.819,7.6H2.366V2.178H41.142V5.446a1.089,1.089,0,1,0,2.178,0V1.089A1.09,1.09,0,0,0,42.231,0H1.277A1.089,1.089,0,0,0,.188,1.089V54.678a1.089,1.089,0,0,0,1.089,1.089H42.231a1.09,1.09,0,0,0,1.089-1.089V39.369L55.3,18.616a4.58,4.58,0,0,0-1.675-6.249Zm-22.6,35.521,3.14,1.812-3.621,2.645Zm10.115,5.7h-8.6L36.8,50.473a1.1,1.1,0,0,0,.3-.334l4.039-6.995Zm-5.381-5.483-4.151-2.4L47.553,18.1l4.15,2.4ZM53.415,17.526l-.623,1.08-4.15-2.4.623-1.08a2.4,2.4,0,1,1,4.15,2.4Z" fill="#fff"/>
    <path id="Path_3443" data-name="Path 3443" d="M377.277,85a1.09,1.09,0,1,0,.77.319A1.1,1.1,0,0,0,377.277,85Z" transform="translate(-335.046 -75.742)" fill="#fff"/>
    <path id="Path_3444" data-name="Path 3444" d="M110.279,106h-22a1.089,1.089,0,0,0,0,2.178h22a1.089,1.089,0,0,0,0-2.178Z" transform="translate(-77.524 -94.454)" fill="#fff"/>
    <path id="Path_3445" data-name="Path 3445" d="M110.279,162h-22a1.089,1.089,0,0,0,0,2.178h22a1.089,1.089,0,0,0,0-2.178Z" transform="translate(-77.524 -144.355)" fill="#fff"/>
    <path id="Path_3446" data-name="Path 3446" d="M224.115,218h-8.087a1.089,1.089,0,1,0,0,2.178h8.087a1.089,1.089,0,1,0,0-2.178Z" transform="translate(-191.359 -194.255)" fill="#fff"/>
    <path id="Path_3447" data-name="Path 3447" d="M111.368,275.089A1.09,1.09,0,0,0,110.279,274h-22a1.089,1.089,0,0,0,0,2.178h22A1.09,1.09,0,0,0,111.368,275.089Z" transform="translate(-77.524 -244.156)" fill="#fff"/>
    <path id="Path_3448" data-name="Path 3448" d="M192.674,331.089A1.09,1.09,0,0,0,191.585,330h-6.808a1.089,1.089,0,1,0,0,2.178h6.808A1.09,1.09,0,0,0,192.674,331.089Z" transform="translate(-163.513 -294.056)" fill="#fff"/>
    <path id="Path_3449" data-name="Path 3449" d="M88.277,388.178h9.585a1.089,1.089,0,1,0,0-2.178H88.277a1.089,1.089,0,0,0,0,2.178Z" transform="translate(-77.524 -343.957)" fill="#fff"/>
    <path id="Path_3450" data-name="Path 3450" d="M88.277,220.178h7.261a1.089,1.089,0,0,0,0-2.178H88.277a1.089,1.089,0,1,0,0,2.178Z" transform="translate(-77.524 -194.255)" fill="#fff"/>
    <path id="Path_3451" data-name="Path 3451" d="M88.277,332.178h5.609a1.089,1.089,0,1,0,0-2.178H88.277a1.089,1.089,0,0,0,0,2.178Z" transform="translate(-77.524 -294.056)" fill="#fff"/>
  </g>
</svg>
