<svg xmlns="http://www.w3.org/2000/svg" width="56.529" height="56.559" viewBox="0 0 56.529 56.559">
  <g id="quality" transform="translate(-0.425 0.001)">
    <path id="Path_3509" data-name="Path 3509" d="M184.548,192.944l-8.5,8.026-4.078-4.2a1.175,1.175,0,1,0-1.686,1.638l4.891,5.021a1.2,1.2,0,0,0,1.662.035l9.347-8.816a1.174,1.174,0,0,0,.047-1.662,1.2,1.2,0,0,0-1.686-.047Zm0,0" transform="translate(-149.547 -169.919)" fill="#fff"/>
    <path id="Path_3510" data-name="Path 3510" d="M108.484,90.551a17.609,17.609,0,1,0,17.61,17.609A17.626,17.626,0,0,0,108.484,90.551Zm0,32.861a15.252,15.252,0,1,1,15.252-15.252A15.27,15.27,0,0,1,108.484,123.412Zm0,0" transform="translate(-79.789 -79.879)" fill="#fff"/>
    <path id="Path_3511" data-name="Path 3511" d="M52.929,21.8l.389-6.99a1.176,1.176,0,0,0-.648-1.12l-6.223-3.147L43.3,4.319a1.2,1.2,0,0,0-1.12-.648l-7,.378L29.343.193a1.178,1.178,0,0,0-1.3,0L22.212,4.048l-6.989-.389a1.174,1.174,0,0,0-1.12.648l-3.147,6.223L4.733,13.677a1.194,1.194,0,0,0-.648,1.12l.389,6.99L.619,27.621a1.178,1.178,0,0,0,0,1.3l3.843,5.846-.389,6.99a1.175,1.175,0,0,0,.648,1.12l6.223,3.147,3.147,6.223a1.194,1.194,0,0,0,1.12.648L22.2,52.5l5.834,3.854a1.148,1.148,0,0,0,1.3,0L35.166,52.5l6.99.389a1.176,1.176,0,0,0,1.12-.648l3.147-6.223,6.223-3.147a1.2,1.2,0,0,0,.648-1.12l-.389-6.99,3.854-5.834a1.178,1.178,0,0,0,0-1.3Zm-2.193,12a1.107,1.107,0,0,0-.188.719l.365,6.612L45.032,44.1a1.163,1.163,0,0,0-.518.519L41.543,50.5l-6.612-.365a1.288,1.288,0,0,0-.719.188L28.7,53.964l-5.516-3.642a1.167,1.167,0,0,0-.648-.2h-.059l-6.613.366-2.97-5.882a1.161,1.161,0,0,0-.519-.518L6.477,41.128l.366-6.612a1.288,1.288,0,0,0-.189-.719L3.012,28.281l3.642-5.516a1.1,1.1,0,0,0,.189-.719l-.366-6.613,5.882-2.97a1.162,1.162,0,0,0,.518-.518l2.97-5.882,6.613.366a1.294,1.294,0,0,0,.719-.189L28.7,2.6,34.211,6.24a1.105,1.105,0,0,0,.719.189l6.612-.366,2.971,5.882a1.162,1.162,0,0,0,.518.518l5.881,2.97-.365,6.613a1.291,1.291,0,0,0,.188.719l3.642,5.516Zm0,0" transform="translate(0 0)" fill="#fff"/>
  </g>
</svg>
