<svg xmlns="http://www.w3.org/2000/svg" width="45.837" height="55.878" viewBox="0 0 45.837 55.878">
  <g id="certificate" transform="translate(-46)">
    <g id="Group_384" data-name="Group 384" transform="translate(46)">
      <path id="Path_3470" data-name="Path 3470" d="M89.654,0H54.731a2.185,2.185,0,0,0-2.183,2.183V5.675H48.183A2.185,2.185,0,0,0,46,7.858V53.695a2.185,2.185,0,0,0,2.183,2.183H83.106a2.185,2.185,0,0,0,2.183-2.183V50.2h4.366a2.185,2.185,0,0,0,2.183-2.183V2.183A2.185,2.185,0,0,0,89.654,0ZM83.106,53.695H48.183V7.858h4.366V48.02A2.185,2.185,0,0,0,54.731,50.2H83.106ZM54.731,48.02V2.183H89.654V48.02Z" transform="translate(-46)" fill="#fff"/>
      <path id="Path_3471" data-name="Path 3471" d="M147.1,54.185h8.131a1.091,1.091,0,1,0,0-2.183H147.1a1.091,1.091,0,1,0,0,2.183Z" transform="translate(-135.09 -46.327)" fill="#fff"/>
      <path id="Path_3472" data-name="Path 3472" d="M147.1,96.851h5.184a1.091,1.091,0,0,0,0-2.183H147.1a1.091,1.091,0,0,0,0,2.183Z" transform="translate(-135.09 -84.336)" fill="#fff"/>
      <path id="Path_3473" data-name="Path 3473" d="M147.1,182.183h8.131a1.091,1.091,0,1,0,0-2.183H147.1a1.091,1.091,0,1,0,0,2.183Z" transform="translate(-135.09 -160.356)" fill="#fff"/>
      <path id="Path_3474" data-name="Path 3474" d="M215.556,262H192.091a1.091,1.091,0,0,0,0,2.183h23.464a1.091,1.091,0,0,0,0-2.183Z" transform="translate(-175.175 -233.407)" fill="#fff"/>
      <path id="Path_3475" data-name="Path 3475" d="M175.47,304.666H147.1a1.091,1.091,0,1,0,0,2.183H175.47a1.091,1.091,0,1,0,0-2.183Z" transform="translate(-135.09 -271.416)" fill="#fff"/>
      <path id="Path_3476" data-name="Path 3476" d="M161.283,347.332H147.1a1.091,1.091,0,1,0,0,2.183h14.187a1.091,1.091,0,1,0,0-2.183Z" transform="translate(-135.09 -309.426)" fill="#fff"/>
      <path id="Path_3477" data-name="Path 3477" d="M161.283,390H147.1a1.091,1.091,0,1,0,0,2.183h14.187a1.091,1.091,0,1,0,0-2.183Z" transform="translate(-135.09 -347.435)" fill="#fff"/>
      <path id="Path_3478" data-name="Path 3478" d="M147.092,264.183a1.091,1.091,0,0,0,0-2.183h0a1.091,1.091,0,0,0,0,2.183Z" transform="translate(-135.086 -233.407)" fill="#fff"/>
      <path id="Path_3479" data-name="Path 3479" d="M276.457,49.038l-.034.467a2.18,2.18,0,0,0,.791,1.914l.332.272.118.357a2.2,2.2,0,0,0,1.485,1.542l.125.038v6.317a1.091,1.091,0,0,0,1.566.983l2.8-1.353,2.8,1.353A1.091,1.091,0,0,0,288,59.944V53.627l.044-.015a2.2,2.2,0,0,0,1.542-1.485l.124-.409.379-.328a2.188,2.188,0,0,0,.76-1.881l-.042-.424.215-.429a2.182,2.182,0,0,0-.006-2.049l-.2-.37.034-.467a2.18,2.18,0,0,0-.791-1.914l-.332-.272-.118-.357a2.2,2.2,0,0,0-1.485-1.542l-.409-.124-.328-.379a2.187,2.187,0,0,0-1.881-.76l-.424.042-.429-.215a2.182,2.182,0,0,0-2.049.006l-.37.2-.467-.034a2.182,2.182,0,0,0-1.914.791l-.272.332-.357.119a2.2,2.2,0,0,0-1.542,1.485l-.124.409-.379.328a2.188,2.188,0,0,0-.76,1.881l.042.424-.215.429a2.183,2.183,0,0,0,.006,2.049Zm7.658,8.341a1.092,1.092,0,0,0-.95,0l-1.708.825V54.86a2.178,2.178,0,0,0,.311-.008l.424-.042.429.215a2.182,2.182,0,0,0,2.049-.006l.37-.2.467.034a2.2,2.2,0,0,0,.316.009v3.342Zm-5.917-9.77.363-.723a1.091,1.091,0,0,0,.11-.6l-.074-.738.634-.549a1.091,1.091,0,0,0,.331-.51l.22-.716q.049-.011.1-.027l.7-.231a1.091,1.091,0,0,0,.5-.344l.479-.579.043,0,.8.058a1.1,1.1,0,0,0,.594-.127l.647-.347h0l.027.014.723.363a1.09,1.09,0,0,0,.6.11l.738-.074.549.634a1.091,1.091,0,0,0,.51.331l.716.22c.008.032.017.064.027.1l.231.7a1.092,1.092,0,0,0,.344.5l.579.479c0,.014,0,.029,0,.043l-.058.8a1.092,1.092,0,0,0,.127.594l.346.65-.014.027-.363.723a1.091,1.091,0,0,0-.11.6l.074.738-.634.549a1.091,1.091,0,0,0-.331.51l-.22.716q-.049.011-.1.027l-.7.231a1.09,1.09,0,0,0-.5.344l-.478.579-.043,0-.8-.058a1.092,1.092,0,0,0-.594.127l-.65.346-.027-.014-.723-.363a1.091,1.091,0,0,0-.489-.116q-.054,0-.108.005l-.738.074-.55-.634a1.092,1.092,0,0,0-.51-.331l-.716-.22q-.011-.049-.027-.1l-.231-.7a1.091,1.091,0,0,0-.344-.5l-.579-.478c0-.014,0-.029,0-.043l.058-.8a1.092,1.092,0,0,0-.127-.594l-.346-.65Z" transform="translate(-250.899 -35.633)" fill="#fff"/>
    </g>
  </g>
</svg>
