<svg xmlns="http://www.w3.org/2000/svg" width="43.567" height="55.797" viewBox="0 0 43.567 55.797">
  <g id="exam" transform="translate(-56.112)">
    <g id="Group_359" data-name="Group 359" transform="translate(64.848 13.104)">
      <g id="Group_358" data-name="Group 358" transform="translate(0)">
        <path id="Path_3452" data-name="Path 3452" d="M166.793,120.239a.817.817,0,0,0-.817.817v36.691a.056.056,0,0,1-.056.056H137.091a.817.817,0,1,0,0,1.635H165.92a1.693,1.693,0,0,0,1.691-1.691V121.056A.817.817,0,0,0,166.793,120.239Z" transform="translate(-136.274 -120.239)" fill="#fff"/>
      </g>
    </g>
    <g id="Group_361" data-name="Group 361" transform="translate(56.112)">
      <g id="Group_360" data-name="Group 360">
        <path id="Path_3453" data-name="Path 3453" d="M97.988,3.494H90.464L87.721.751A2.548,2.548,0,0,0,85.908,0H57.8a1.693,1.693,0,0,0-1.691,1.691V50.612A1.693,1.693,0,0,0,57.8,52.3h1.8v1.8A1.693,1.693,0,0,0,61.3,55.8H97.988a1.693,1.693,0,0,0,1.691-1.691V5.185A1.693,1.693,0,0,0,97.988,3.494ZM86.575,1.917l7.692,7.692H86.631a.056.056,0,0,1-.056-.056ZM98.044,54.106a.056.056,0,0,1-.056.056H61.3a.056.056,0,0,1-.056-.056V52.3h.93a.817.817,0,0,0,0-1.635H57.8a.056.056,0,0,1-.056-.056V1.691a.056.056,0,0,1,.056-.056H84.94V9.553a1.693,1.693,0,0,0,1.691,1.691h8.736a.817.817,0,0,0,.817-.817v-.15a2.548,2.548,0,0,0-.751-1.813L92.1,5.129h5.889a.056.056,0,0,1,.056.056V54.106Z" transform="translate(-56.112)" fill="#fff"/>
      </g>
    </g>
    <g id="Group_363" data-name="Group 363" transform="translate(61.353 9.098)">
      <g id="Group_362" data-name="Group 362" transform="translate(0)">
        <path id="Path_3454" data-name="Path 3454" d="M115.213,83.722a.817.817,0,0,0-1.156,0l-4.624,4.624a.056.056,0,0,1-.08,0L107.51,86.5h1.419a.817.817,0,1,0,0-1.635h-2.157a1.678,1.678,0,0,0-.729.168l-.44-.44a.817.817,0,1,0-1.156,1.156l.643.643c-.005.054-.008.109-.008.165V91.8a1.693,1.693,0,0,0,1.691,1.691h5.242a1.693,1.693,0,0,0,1.691-1.691V86.385l1.508-1.508A.817.817,0,0,0,115.213,83.722ZM112.071,91.8a.056.056,0,0,1-.056.056h-5.242a.056.056,0,0,1-.056-.056V88.02L108.2,89.5a1.693,1.693,0,0,0,2.391,0l1.481-1.481Z" transform="translate(-104.208 -83.482)" fill="#fff"/>
      </g>
    </g>
    <g id="Group_365" data-name="Group 365" transform="translate(62.227 21.84)">
      <g id="Group_364" data-name="Group 364">
        <path id="Path_3455" data-name="Path 3455" d="M119.157,200.4h-5.242a1.693,1.693,0,0,0-1.691,1.691v5.242a1.693,1.693,0,0,0,1.691,1.691h5.242a1.693,1.693,0,0,0,1.691-1.691v-5.242A1.693,1.693,0,0,0,119.157,200.4Zm.056,6.932a.056.056,0,0,1-.056.056h-5.242a.056.056,0,0,1-.056-.056v-5.242a.056.056,0,0,1,.056-.056h5.242a.056.056,0,0,1,.056.056Z" transform="translate(-112.225 -200.403)" fill="#fff"/>
      </g>
    </g>
    <g id="Group_367" data-name="Group 367" transform="translate(62.227 33.196)">
      <g id="Group_366" data-name="Group 366">
        <path id="Path_3456" data-name="Path 3456" d="M119.157,304.613h-5.242a1.693,1.693,0,0,0-1.691,1.691v5.242a1.693,1.693,0,0,0,1.691,1.691h5.242a1.693,1.693,0,0,0,1.691-1.691V306.3A1.693,1.693,0,0,0,119.157,304.613Zm.056,6.932a.056.056,0,0,1-.056.056h-5.242a.056.056,0,0,1-.056-.056V306.3a.056.056,0,0,1,.056-.056h5.242a.056.056,0,0,1,.056.056Z" transform="translate(-112.225 -304.613)" fill="#fff"/>
      </g>
    </g>
    <g id="Group_369" data-name="Group 369" transform="translate(73.584 12.23)">
      <g id="Group_368" data-name="Group 368">
        <path id="Path_3457" data-name="Path 3457" d="M225.115,112.226h-7.862a.817.817,0,1,0,0,1.635h7.862a.817.817,0,0,0,0-1.635Z" transform="translate(-216.435 -112.226)" fill="#fff"/>
      </g>
    </g>
    <g id="Group_371" data-name="Group 371" transform="translate(73.584 15.725)">
      <g id="Group_370" data-name="Group 370">
        <path id="Path_3458" data-name="Path 3458" d="M232.1,144.291H217.252a.817.817,0,1,0,0,1.635H232.1a.817.817,0,0,0,0-1.635Z" transform="translate(-216.435 -144.291)" fill="#fff"/>
      </g>
    </g>
    <g id="Group_373" data-name="Group 373" transform="translate(73.584 23.587)">
      <g id="Group_372" data-name="Group 372">
        <path id="Path_3459" data-name="Path 3459" d="M225.115,216.436h-7.862a.817.817,0,1,0,0,1.635h7.862a.817.817,0,0,0,0-1.635Z" transform="translate(-216.435 -216.436)" fill="#fff"/>
      </g>
    </g>
    <g id="Group_375" data-name="Group 375" transform="translate(73.584 27.081)">
      <g id="Group_374" data-name="Group 374">
        <path id="Path_3460" data-name="Path 3460" d="M232.1,248.5H217.252a.817.817,0,1,0,0,1.635H232.1a.817.817,0,0,0,0-1.635Z" transform="translate(-216.435 -248.5)" fill="#fff"/>
      </g>
    </g>
    <g id="Group_377" data-name="Group 377" transform="translate(73.584 34.944)">
      <g id="Group_376" data-name="Group 376">
        <path id="Path_3461" data-name="Path 3461" d="M225.115,320.645h-7.862a.817.817,0,1,0,0,1.635h7.862a.817.817,0,0,0,0-1.635Z" transform="translate(-216.435 -320.645)" fill="#fff"/>
      </g>
    </g>
    <g id="Group_379" data-name="Group 379" transform="translate(73.584 38.438)">
      <g id="Group_378" data-name="Group 378">
        <path id="Path_3462" data-name="Path 3462" d="M232.1,352.709H217.252a.817.817,0,0,0,0,1.635H232.1a.817.817,0,0,0,0-1.635Z" transform="translate(-216.435 -352.709)" fill="#fff"/>
      </g>
    </g>
  </g>
</svg>
