<svg xmlns="http://www.w3.org/2000/svg" class="Courses_Card--wrapper_img1" width="51.886" height="47.893" viewBox="0 0 51.886 47.893">
  <g id="certificate_3_" data-name="certificate (3)" transform="translate(0.25 0.25)">
    <path id="Path_3564" data-name="Path 3564" d="M49.88,20H1.505A1.505,1.505,0,0,0,0,21.505V53.43a1.505,1.505,0,0,0,1.505,1.505H19.839V65.866a1.505,1.505,0,0,0,2.428,1.19L25.693,64.4l3.426,2.657a1.505,1.505,0,0,0,2.428-1.19V54.935H49.88a1.505,1.505,0,0,0,1.505-1.505V21.505A1.505,1.505,0,0,0,49.88,20ZM33.04,51.924a8.268,8.268,0,1,0-14.694,0H12.978l-9.968-10V32.917l9.874-9.906H38.407l9.968,10v9.007L38.5,51.924Zm-7.347,1.483a5.279,5.279,0,1,1,5.258-5.279A5.274,5.274,0,0,1,25.693,53.407ZM48.375,28.746l-5.716-5.735h5.716ZM8.634,23.011,3.011,28.652V23.011ZM3.011,46.189l5.716,5.735H3.011ZM26.615,61.3a1.505,1.505,0,0,0-1.845,0l-1.921,1.49v-6.88a8.254,8.254,0,0,0,5.687,0v6.88Zm16.136-9.379,5.623-5.641v5.641Z" transform="translate(0 -20)" fill="#333" stroke="#fff" stroke-linecap="round" stroke-linejoin="round" stroke-width="0.5"/>
    <path id="Path_3565" data-name="Path 3565" d="M170.734,96.969h14.406a1.505,1.505,0,0,0,0-3.011H170.734a1.505,1.505,0,1,0,0,3.011Z" transform="translate(-152.245 -86.535)" fill="#333" stroke="#fff" stroke-linecap="round" stroke-linejoin="round" stroke-width="0.5"/>
    <path id="Path_3566" data-name="Path 3566" d="M158.071,148.894h-21.2a1.505,1.505,0,0,0,0,3.011h21.2a1.505,1.505,0,0,0,0-3.011Z" transform="translate(-121.776 -135.958)" fill="#333" stroke="#fff" stroke-linecap="round" stroke-linejoin="round" stroke-width="0.5"/>
  </g>
</svg>
