<svg id="Group_132" data-name="Group 132" xmlns="http://www.w3.org/2000/svg" width="19.849" height="23.213" viewBox="0 0 19.849 23.213">
  <path id="bell" d="M71.423,18.473a3.607,3.607,0,0,1-1.1-1.492,17.269,17.269,0,0,1-1.143-6.824c0-.009,0-.017,0-.026a6.586,6.586,0,0,0-3.877-5.974V2.586A2.587,2.587,0,0,0,62.725,0h-.214A2.587,2.587,0,0,0,59.93,2.586V4.157a6.587,6.587,0,0,0-3.878,6,17.269,17.269,0,0,1-1.143,6.824,3.607,3.607,0,0,1-1.1,1.492.661.661,0,0,0-.363.752.692.692,0,0,0,.682.532h4.985a3.5,3.5,0,0,0,7,0H71.1a.692.692,0,0,0,.682-.532A.661.661,0,0,0,71.423,18.473ZM61.29,2.586a1.224,1.224,0,0,1,1.222-1.224h.214a1.224,1.224,0,0,1,1.222,1.224v1.13a6.587,6.587,0,0,0-2.657,0V2.586Zm1.328,19.265a2.146,2.146,0,0,1-2.141-2.094h4.282A2.146,2.146,0,0,1,62.618,21.851Zm2.738-3.457H55.682a7.129,7.129,0,0,0,.356-.626,17.218,17.218,0,0,0,1.374-7.612,5.206,5.206,0,1,1,10.412,0c0,.008,0,.017,0,.025A17.184,17.184,0,0,0,69.2,17.769a7.133,7.133,0,0,0,.356.626Z" transform="translate(-53.434 0)" fill="#333"/>
  <g id="Ellipse_11" data-name="Ellipse 11" transform="translate(13.211 5.898)" fill="#eb8341" stroke="#fff" stroke-width="1.5">
    <ellipse cx="2.569" cy="2.569" rx="2.569" ry="2.569" stroke="none"/>
    <ellipse cx="2.569" cy="2.569" rx="3.319" ry="3.319" fill="none"/>
  </g>
</svg>
