<svg xmlns="http://www.w3.org/2000/svg" width="22.306" height="15.684" viewBox="0 0 22.306 15.684">
  <g id="mail" transform="translate(0 0)">
    <g id="Group_315" data-name="Group 315" transform="translate(0 0)">
      <path id="Path_705" data-name="Path 705" d="M20.346,76H1.961A1.963,1.963,0,0,0,0,77.961V89.724a1.963,1.963,0,0,0,1.961,1.961H20.346a1.963,1.963,0,0,0,1.961-1.961V77.961A1.962,1.962,0,0,0,20.346,76Zm-.275,1.307L12.539,84.8a1.961,1.961,0,0,1-2.774,0L2.235,77.307ZM1.307,89.458V78.227l5.648,5.618Zm.929.92,5.646-5.61.961.956a3.267,3.267,0,0,0,4.62,0l.962-.957,5.646,5.61ZM21,89.458l-5.648-5.612L21,78.227Z" transform="translate(0 -76)" fill="#333"/>
    </g>
  </g>
</svg>
