<svg id="calendar" xmlns="http://www.w3.org/2000/svg" width="13.99" height="12.367" viewBox="0 0 13.99 12.367">
  <g id="Group_647" data-name="Group 647">
    <g id="Group_646" data-name="Group 646">
      <path id="Path_3592" data-name="Path 3592" d="M12.224,30.328h-.918V30.1a.41.41,0,1,0-.82,0v.225H9.356V30.1a.41.41,0,1,0-.82,0v.225H7.4V30.1a.41.41,0,1,0-.82,0v.225H5.454V30.1a.41.41,0,1,0-.82,0v.225H3.5V30.1a.41.41,0,1,0-.82,0v.225H1.766A1.768,1.768,0,0,0,0,32.094v8.2a1.768,1.768,0,0,0,1.766,1.766H12.224A1.768,1.768,0,0,0,13.99,40.3v-8.2A1.768,1.768,0,0,0,12.224,30.328ZM13.17,40.3a.947.947,0,0,1-.946.946H1.766A.947.947,0,0,1,.82,40.3v-6.7H13.17Zm0-7.523H.82v-.678a.947.947,0,0,1,.946-.946h.918v.158a.41.41,0,1,0,.82,0v-.158H4.634v.158a.41.41,0,1,0,.82,0v-.158H6.585v.158a.41.41,0,1,0,.82,0v-.158H8.536v.158a.41.41,0,1,0,.82,0v-.158h1.131v.158a.41.41,0,1,0,.82,0v-.158h.918a.947.947,0,0,1,.946.946Z" transform="translate(0 -29.694)" fill="#eb8341"/>
    </g>
  </g>
  <g id="Group_649" data-name="Group 649" transform="translate(2.542 4.772)">
    <g id="Group_648" data-name="Group 648">
      <path id="Path_3593" data-name="Path 3593" d="M95.053,204.329H93.436a.41.41,0,0,0-.41.41v1.673a.41.41,0,0,0,.41.41h1.617a.41.41,0,0,0,.41-.41v-1.673A.41.41,0,0,0,95.053,204.329ZM94.643,206h-.8v-.854h.8Z" transform="translate(-93.026 -204.329)" fill="#eb8341"/>
    </g>
  </g>
  <g id="Group_651" data-name="Group 651" transform="translate(5.777 4.772)">
    <g id="Group_650" data-name="Group 650">
      <path id="Path_3594" data-name="Path 3594" d="M213.433,204.329h-1.617a.41.41,0,0,0-.41.41v1.673a.41.41,0,0,0,.41.41h1.617a.41.41,0,0,0,.41-.41v-1.673A.41.41,0,0,0,213.433,204.329Zm-.41,1.673h-.8v-.854h.8Z" transform="translate(-211.406 -204.329)" fill="#eb8341"/>
    </g>
  </g>
  <g id="Group_653" data-name="Group 653" transform="translate(9.011 4.772)">
    <g id="Group_652" data-name="Group 652">
      <path id="Path_3595" data-name="Path 3595" d="M331.812,204.329h-1.617a.41.41,0,0,0-.41.41v1.673a.41.41,0,0,0,.41.41h1.617a.41.41,0,0,0,.41-.41v-1.673A.41.41,0,0,0,331.812,204.329ZM331.4,206h-.8v-.854h.8Z" transform="translate(-329.785 -204.329)" fill="#eb8341"/>
    </g>
  </g>
  <g id="Group_655" data-name="Group 655" transform="translate(2.542 7.95)">
    <g id="Group_654" data-name="Group 654">
      <path id="Path_3596" data-name="Path 3596" d="M95.053,320.658H93.436a.41.41,0,0,0-.41.41v1.673a.41.41,0,0,0,.41.41h1.617a.41.41,0,0,0,.41-.41v-1.673A.41.41,0,0,0,95.053,320.658Zm-.41,1.673h-.8v-.854h.8Z" transform="translate(-93.026 -320.658)" fill="#eb8341"/>
    </g>
  </g>
  <g id="Group_657" data-name="Group 657" transform="translate(5.777 7.95)">
    <g id="Group_656" data-name="Group 656">
      <path id="Path_3597" data-name="Path 3597" d="M213.433,320.658h-1.617a.41.41,0,0,0-.41.41v1.673a.41.41,0,0,0,.41.41h1.617a.41.41,0,0,0,.41-.41v-1.673A.41.41,0,0,0,213.433,320.658Zm-.41,1.673h-.8v-.854h.8Z" transform="translate(-211.406 -320.658)" fill="#eb8341"/>
    </g>
  </g>
  <g id="Group_659" data-name="Group 659" transform="translate(9.011 7.95)">
    <g id="Group_658" data-name="Group 658">
      <path id="Path_3598" data-name="Path 3598" d="M331.812,320.658h-1.617a.41.41,0,0,0-.41.41v1.673a.41.41,0,0,0,.41.41h1.617a.41.41,0,0,0,.41-.41v-1.673A.41.41,0,0,0,331.812,320.658Zm-.41,1.673h-.8v-.854h.8Z" transform="translate(-329.785 -320.658)" fill="#eb8341"/>
    </g>
  </g>
</svg>
