<svg xmlns="http://www.w3.org/2000/svg" width="20.571" height="18.186" viewBox="0 0 20.571 18.186">
  <g id="chat" transform="translate(0.15 0.15)">
    <g id="Group_778" data-name="Group 778">
      <path id="Path_3643" data-name="Path 3643" d="M208.775,191.141h-9.423a.3.3,0,1,0,0,.594h9.423a.3.3,0,1,0,0-.594Z" transform="translate(-191.174 -184.766)" fill="#333" stroke="#333" stroke-linecap="round" stroke-linejoin="round" stroke-width="0.3"/>
      <path id="Path_3644" data-name="Path 3644" d="M208.775,248.474h-9.423a.3.3,0,0,0,0,.594h9.423a.3.3,0,0,0,0-.594Z" transform="translate(-191.174 -239.829)" fill="#333" stroke="#333" stroke-linecap="round" stroke-linejoin="round" stroke-width="0.3"/>
      <path id="Path_3645" data-name="Path 3645" d="M208.775,305.807h-9.423a.3.3,0,0,0,0,.594h9.423a.3.3,0,0,0,0-.594Z" transform="translate(-191.174 -294.892)" fill="#333" stroke="#333" stroke-linecap="round" stroke-linejoin="round" stroke-width="0.3"/>
      <path id="Path_3646" data-name="Path 3646" d="M152.146,125.549H140.837a1.729,1.729,0,0,0-1.727,1.727v7.111a1.729,1.729,0,0,0,1.727,1.727h7.927a.274.274,0,0,1,.216.1l2.56,3.241a.51.51,0,0,0,.4.2.525.525,0,0,0,.173-.03.511.511,0,0,0,.347-.488v-3.055a1.735,1.735,0,0,0,1.412-1.7v-7.111A1.729,1.729,0,0,0,152.146,125.549Zm1.133,8.838a1.137,1.137,0,0,1-1.118,1.133.3.3,0,0,0-.293.3v3.1l-2.422-3.066a.864.864,0,0,0-.682-.33h-7.927a1.134,1.134,0,0,1-1.133-1.133v-7.111a1.134,1.134,0,0,1,1.133-1.133h11.309a1.134,1.134,0,0,1,1.133,1.133Z" transform="translate(-133.603 -121.771)" fill="#333" stroke="#333" stroke-linecap="round" stroke-linejoin="round" stroke-width="0.3"/>
      <path id="Path_3647" data-name="Path 3647" d="M4.375,38.8a.792.792,0,0,0-.512.294l-2.04,2.582V39.087a.3.3,0,0,0-.293-.3.951.951,0,0,1-.936-.948v-6.19a.949.949,0,0,1,.948-.948h9.845a.949.949,0,0,1,.948.948V32.8a.3.3,0,1,0,.594,0V31.652a1.544,1.544,0,0,0-1.542-1.542H1.542A1.544,1.544,0,0,0,0,31.652v6.19a1.549,1.549,0,0,0,1.229,1.509v2.627a.482.482,0,0,0,.328.461.5.5,0,0,0,.163.028.482.482,0,0,0,.38-.186l2.228-2.821a.2.2,0,0,1,.13-.075.3.3,0,0,0-.083-.588Z" transform="translate(0 -30.11)" fill="#333" stroke="#333" stroke-linecap="round" stroke-linejoin="round" stroke-width="0.3"/>
    </g>
  </g>
</svg>
