<svg id="computer" xmlns="http://www.w3.org/2000/svg" width="34.467" height="21.533" viewBox="0 0 34.467 21.533">
  <path id="Path_3626" data-name="Path 3626" d="M7.658,30.85H7a1.618,1.618,0,0,0-1.616,1.616V33a.538.538,0,0,0,.539.539H16.692A.538.538,0,0,0,17.23,33v-.539a1.618,1.618,0,0,0-1.616-1.616h-.657l-.269-1.075H21a1.618,1.618,0,0,0,1.616-1.616V13.626A1.618,1.618,0,0,0,21,12.01H1.619A1.618,1.618,0,0,0,0,13.626V28.159a1.618,1.618,0,0,0,1.616,1.616H7.926ZM7,31.927h8.614a.539.539,0,0,1,.539.539H6.462A.539.539,0,0,1,7,31.927Zm6.848-1.077H8.767l.269-1.075h4.544ZM1.619,13.087H21a.539.539,0,0,1,.539.539V26.543H1.08V13.626a.539.539,0,0,1,.539-.539ZM1.08,28.159v-.539H11.318a.542.542,0,1,0,.006,0H21.535v.539A.539.539,0,0,1,21,28.7H1.619a.539.539,0,0,1-.539-.539Z" transform="translate(-0.003 -12.01)" fill="#fff"/>
  <path id="Path_3627" data-name="Path 3627" d="M53.153,12.01H45.612A1.618,1.618,0,0,0,44,13.626v18.3a1.618,1.618,0,0,0,1.616,1.616h7.541a1.618,1.618,0,0,0,1.616-1.616v-18.3a1.617,1.617,0,0,0-1.616-1.616Zm-8.079,3.229h8.618v.538H45.073Zm.539-2.152h7.541a.539.539,0,0,1,.539.539v.536H45.073v-.536A.539.539,0,0,1,45.612,13.087Zm7.541,19.379H45.612a.539.539,0,0,1-.539-.539V16.854h8.618V31.927A.539.539,0,0,1,53.153,32.466Z" transform="translate(-20.302 -12.01)" fill="#fff"/>
  <path id="Path_3628" data-name="Path 3628" d="M52.613,30.236A1.616,1.616,0,1,0,51,28.62,1.618,1.618,0,0,0,52.613,30.236Zm0-2.154a.539.539,0,1,1-.539.539A.539.539,0,0,1,52.613,28.081Z" transform="translate(-23.532 -18.928)" fill="#fff"/>
  <path id="Path_3629" data-name="Path 3629" d="M53.844,39.006H49.536a.539.539,0,0,0,0,1.077h4.309a.539.539,0,0,0,0-1.077Z" transform="translate(-22.609 -24.466)" fill="#fff"/>
  <path id="Path_3630" data-name="Path 3630" d="M53.844,42.006H49.536a.539.539,0,1,0,0,1.077h4.309a.539.539,0,1,0,0-1.077Z" transform="translate(-22.609 -25.85)" fill="#fff"/>
  <path id="Path_3631" data-name="Path 3631" d="M53.844,45.006H49.536a.539.539,0,0,0,0,1.077h4.309a.539.539,0,0,0,0-1.077Z" transform="translate(-22.609 -27.235)" fill="#fff"/>
</svg>
