<svg id="descending-sort" xmlns="http://www.w3.org/2000/svg" width="12.743" height="12.427" viewBox="0 0 12.743 12.427">
  <path id="Path_3585" data-name="Path 3585" d="M6.319,262.736H.423a.423.423,0,0,0-.423.423v.423a.423.423,0,0,0,.423.423h5.9a.423.423,0,0,0,.423-.423v-.423A.423.423,0,0,0,6.319,262.736Z" transform="translate(0 -251.779)" fill="#eb8341"/>
  <path id="Path_3586" data-name="Path 3586" d="M.423,201.005h5.1a.423.423,0,0,0,.423-.423v-.423a.423.423,0,0,0-.423-.423H.423a.423.423,0,0,0-.423.423v.423A.423.423,0,0,0,.423,201.005Z" transform="translate(0 -191.444)" fill="#eb8341"/>
  <path id="Path_3587" data-name="Path 3587" d="M.423,138.005H4.73a.423.423,0,0,0,.423-.423v-.423a.423.423,0,0,0-.423-.423H.423a.423.423,0,0,0-.423.423v.423A.423.423,0,0,0,.423,138.005Z" transform="translate(0 -131.109)" fill="#eb8341"/>
  <path id="Path_3588" data-name="Path 3588" d="M.423,68.005H3.935a.423.423,0,0,0,.423-.423v-.423a.423.423,0,0,0-.423-.423H.423A.423.423,0,0,0,0,67.159v.423A.423.423,0,0,0,.423,68.005Z" transform="translate(0 -64.071)" fill="#eb8341"/>
  <path id="Path_3589" data-name="Path 3589" d="M.423,5.005H3.141a.423.423,0,0,0,.423-.423V4.159a.423.423,0,0,0-.423-.423H.423A.423.423,0,0,0,0,4.159v.423A.423.423,0,0,0,.423,5.005Z" transform="translate(0 -3.736)" fill="#eb8341"/>
  <path id="Path_3590" data-name="Path 3590" d="M160.247,17.541l-.3-.3a.423.423,0,0,0-.6,0L157.895,18.7V9.159a.423.423,0,0,0-.423-.423h-.423a.423.423,0,0,0-.423.423V18.7l-1.455-1.455a.423.423,0,0,0-.6,0l-.3.3a.423.423,0,0,0,0,.6l2.688,2.688a.423.423,0,0,0,.6,0l2.688-2.688A.423.423,0,0,0,160.247,17.541Z" transform="translate(-147.628 -8.524)" fill="#eb8341"/>
</svg>
