<svg xmlns="http://www.w3.org/2000/svg" width="19.213" height="35.159" viewBox="0 0 19.213 35.159">
  <path id="dollar-currency-symbol" d="M96.09,24.1a7.513,7.513,0,0,0-3.272-6.535,19.59,19.59,0,0,0-5.738-2.42c-4.142-1.256-5.343-1.917-5.343-3.9,0-2.206,2.867-2.991,5.322-2.991A10.263,10.263,0,0,1,92.18,9.633l2.532-3.922A14.512,14.512,0,0,0,88.5,3.662V0H83.831V3.919c-4.152.913-6.768,3.627-6.768,7.326a7.011,7.011,0,0,0,3.193,6.094,19.6,19.6,0,0,0,5.47,2.275c4.063,1.228,5.712,1.976,5.694,4.454v.018c0,2.08-2.756,2.819-5.118,2.819a8.757,8.757,0,0,1-6.031-2.431l-3.393,3.21a13.025,13.025,0,0,0,6.953,3.654v3.821H88.5V31.421C93.116,30.76,96.086,27.982,96.09,24.1Z" transform="translate(-76.878)" fill="#333"/>
</svg>
