<svg xmlns="http://www.w3.org/2000/svg" width="19.994" height="18.318" viewBox="0 0 19.994 18.318">
  <g id="filter" transform="translate(0 0)">
    <path id="Path_3600" data-name="Path 3600" d="M83.479,82.009H71.567a2.457,2.457,0,0,0-4.658,0H65.049a.782.782,0,1,0,0,1.564h1.859a2.457,2.457,0,0,0,4.658,0H83.479a.782.782,0,1,0,0-1.564ZM69.238,83.685a.893.893,0,1,1,.893-.893A.894.894,0,0,1,69.238,83.685Z" transform="translate(-64.267 -80.334)" fill="#eb8341"/>
    <path id="Path_3601" data-name="Path 3601" d="M83.479,210.542H81.619a2.457,2.457,0,0,0-4.658,0H65.049a.782.782,0,1,0,0,1.564H76.961a2.457,2.457,0,0,0,4.658,0h1.859a.782.782,0,1,0,0-1.564Zm-4.189,1.675a.893.893,0,1,1,.893-.893A.894.894,0,0,1,79.29,212.218Z" transform="translate(-64.267 -202.165)" fill="#eb8341"/>
    <path id="Path_3602" data-name="Path 3602" d="M83.479,339.075H74.918a2.457,2.457,0,0,0-4.658,0h-5.21a.782.782,0,1,0,0,1.564h5.21a2.457,2.457,0,0,0,4.658,0h8.561a.782.782,0,1,0,0-1.564Zm-10.89,1.675a.893.893,0,1,1,.893-.893A.894.894,0,0,1,72.588,340.751Z" transform="translate(-64.267 -323.997)" fill="#eb8341"/>
  </g>
</svg>
