<svg id="google-icon" xmlns="http://www.w3.org/2000/svg" width="33.243" height="33.921" viewBox="0 0 33.243 33.921">
  <path id="Path_3437" data-name="Path 3437" d="M146.832,110.228a14.535,14.535,0,0,0-.358-3.467H130.55v6.294H139.9a8.288,8.288,0,0,1-3.468,5.5l-.032.211,5.035,3.9.349.035a16.583,16.583,0,0,0,5.051-12.475" transform="translate(-113.589 -92.891)" fill="#4285f4"/>
  <path id="Path_3438" data-name="Path 3438" d="M29.077,169.976a16.166,16.166,0,0,0,11.232-4.108l-5.352-4.146a10.039,10.039,0,0,1-5.88,1.7,10.211,10.211,0,0,1-9.649-7.048l-.2.017-5.235,4.052-.068.19a16.949,16.949,0,0,0,15.152,9.347" transform="translate(-12.116 -136.055)" fill="#34a853"/>
  <path id="Path_3439" data-name="Path 3439" d="M7.312,82.362a10.441,10.441,0,0,1-.565-3.354,10.972,10.972,0,0,1,.546-3.354l-.009-.225-5.3-4.117-.173.082a16.924,16.924,0,0,0,0,15.227l5.5-4.259" transform="translate(0 -62.047)" fill="#fbbc05"/>
  <path id="Path_3440" data-name="Path 3440" d="M29.077,6.558a9.4,9.4,0,0,1,6.558,2.525L40.422,4.41A16.3,16.3,0,0,0,29.077,0,16.949,16.949,0,0,0,13.925,9.347l5.484,4.259a10.252,10.252,0,0,1,9.668-7.048" transform="translate(-12.116 0)" fill="#eb4335"/>
</svg>
