<svg id="html5" xmlns="http://www.w3.org/2000/svg" width="29.858" height="42.145" viewBox="0 0 29.858 42.145">
  <path id="Path_646" data-name="Path 646" d="M224.524,242l-2.717-30.478h29.858l-2.72,30.473-12.227,3.39Z" transform="translate(-221.807 -203.24)" fill="#e44d26"/>
  <path id="Path_647" data-name="Path 647" d="M441.807,277.026l9.88-2.739,2.325-26.04h-12.2Z" transform="translate(-426.878 -237.471)" fill="#f16529"/>
  <path id="Path_648" data-name="Path 648" d="M313.056,310.9H308.11l-.342-3.828h5.288V303.33h-9.373l.09,1,.919,10.3h8.365Zm0,9.708-.016,0-4.163-1.124-.266-2.981h-3.752l.524,5.869,7.657,2.126.017,0Z" transform="translate(-298.127 -288.817)" fill="#ebebeb"/>
  <path id="Path_649" data-name="Path 649" d="M262.745,89.47h1.9v1.877h1.738V89.47h1.9v5.683h-1.9v-1.9h-1.738v1.9h-1.9Zm8.035,1.885h-1.672V89.47h5.245v1.885H272.68v3.8h-1.9v-3.8Zm4.405-1.885h1.981l1.218,2,1.217-2h1.982v5.683h-1.892V92.336l-1.307,2.021h-.033l-1.308-2.021v2.817h-1.859V89.47Zm7.343,0h1.9v3.8H287.1v1.879h-4.572Z" transform="translate(-259.967 -89.47)"/>
  <path id="Path_650" data-name="Path 650" d="M441.617,310.9v3.738h4.6l-.434,4.848-4.169,1.125V324.5l7.663-2.124.056-.632.878-9.841.091-1h-8.689Zm0-7.566v3.738h9.029l.075-.84.17-1.895.089-1Z" transform="translate(-426.701 -288.817)" fill="#fff"/>
</svg>
