<svg xmlns="http://www.w3.org/2000/svg" width="21.919" height="16.539" viewBox="0 0 21.919 16.539">
  <g id="id-card" transform="translate(0.2 0.2)">
    <g id="Group_309" data-name="Group 309" transform="translate(0 0)">
      <path id="Path_699" data-name="Path 699" d="M19.277,19.139H2.242A2.245,2.245,0,0,1,0,16.9V5.242A2.245,2.245,0,0,1,2.242,3H19.277a2.245,2.245,0,0,1,2.242,2.242V16.9A2.245,2.245,0,0,1,19.277,19.139ZM2.242,3.9A1.347,1.347,0,0,0,.9,5.242V16.9a1.347,1.347,0,0,0,1.345,1.345H19.277A1.347,1.347,0,0,0,20.622,16.9V5.242A1.347,1.347,0,0,0,19.277,3.9Z" transform="translate(0 -3)" fill="#333" stroke="#333" stroke-width="0.4"/>
    </g>
    <g id="Group_310" data-name="Group 310" transform="translate(4.483 3.586)">
      <path id="Path_700" data-name="Path 700" d="M7.242,11.483A2.242,2.242,0,1,1,9.483,9.242,2.245,2.245,0,0,1,7.242,11.483Zm0-3.586A1.345,1.345,0,1,0,8.586,9.242,1.347,1.347,0,0,0,7.242,7.9Z" transform="translate(-5 -7)" fill="#333" stroke="#333" stroke-width="0.4"/>
    </g>
    <g id="Group_311" data-name="Group 311" transform="translate(2.69 8.966)">
      <path id="Path_701" data-name="Path 701" d="M10.621,16.586a.448.448,0,0,1-.448-.448v-.9A1.347,1.347,0,0,0,8.828,13.9H5.242A1.347,1.347,0,0,0,3.9,15.242v.9a.448.448,0,0,1-.9,0v-.9A2.245,2.245,0,0,1,5.242,13H8.828a2.245,2.245,0,0,1,2.242,2.242v.9A.448.448,0,0,1,10.621,16.586Z" transform="translate(-3 -13)" fill="#333" stroke="#333" stroke-width="0.4"/>
    </g>
    <g id="Group_312" data-name="Group 312" transform="translate(12.552 4.483)">
      <path id="Path_702" data-name="Path 702" d="M19.828,8.9h-5.38a.448.448,0,1,1,0-.9h5.38a.448.448,0,1,1,0,.9Z" transform="translate(-14 -8)" fill="#333" stroke="#333" stroke-width="0.4"/>
    </g>
    <g id="Group_313" data-name="Group 313" transform="translate(12.552 8.069)">
      <path id="Path_703" data-name="Path 703" d="M19.828,12.9h-5.38a.448.448,0,0,1,0-.9h5.38a.448.448,0,1,1,0,.9Z" transform="translate(-14 -12)" fill="#333" stroke="#333" stroke-width="0.4"/>
    </g>
    <g id="Group_314" data-name="Group 314" transform="translate(12.552 11.656)">
      <path id="Path_704" data-name="Path 704" d="M19.828,16.9h-5.38a.448.448,0,1,1,0-.9h5.38a.448.448,0,1,1,0,.9Z" transform="translate(-14 -16)" fill="#333" stroke="#333" stroke-width="0.4"/>
    </g>
  </g>
</svg>
