<svg id="instagram-2016" xmlns="http://www.w3.org/2000/svg" width="28.628" height="28.629" viewBox="0 0 28.628 28.629">
  <path id="Path_630" data-name="Path 630" d="M9.544,14.314a4.771,4.771,0,1,1,4.771,4.772,4.771,4.771,0,0,1-4.771-4.772m-2.58,0a7.35,7.35,0,1,0,7.35-7.35,7.35,7.35,0,0,0-7.35,7.35M20.238,6.673a1.718,1.718,0,1,0,1.718-1.717h0a1.719,1.719,0,0,0-1.718,1.717M8.532,25.966a7.912,7.912,0,0,1-2.658-.492A4.449,4.449,0,0,1,4.227,24.4a4.416,4.416,0,0,1-1.071-1.645A7.9,7.9,0,0,1,2.664,20.1c-.069-1.509-.083-1.962-.083-5.785S2.6,10.04,2.664,8.53a7.964,7.964,0,0,1,.492-2.658A4.449,4.449,0,0,1,4.227,4.225,4.412,4.412,0,0,1,5.873,3.154a7.9,7.9,0,0,1,2.658-.492c1.509-.069,1.962-.083,5.783-.083s4.275.015,5.785.083a7.964,7.964,0,0,1,2.658.492A4.435,4.435,0,0,1,24.4,4.225a4.435,4.435,0,0,1,1.071,1.646,7.9,7.9,0,0,1,.492,2.658c.069,1.51.083,1.962.083,5.785s-.014,4.275-.083,5.785a7.941,7.941,0,0,1-.492,2.658,4.74,4.74,0,0,1-2.717,2.716,7.9,7.9,0,0,1-2.658.492c-1.509.069-1.962.083-5.785.083s-4.275-.014-5.783-.083M8.413.087A10.5,10.5,0,0,0,4.938.752,7.021,7.021,0,0,0,2.4,2.4,6.994,6.994,0,0,0,.752,4.938,10.5,10.5,0,0,0,.087,8.413C.016,9.939,0,10.427,0,14.314s.016,4.375.087,5.9A10.5,10.5,0,0,0,.752,23.69,7,7,0,0,0,2.4,26.226a7.038,7.038,0,0,0,2.536,1.651,10.506,10.506,0,0,0,3.475.665c1.527.069,2.014.087,5.9.087s4.375-.016,5.9-.087a10.5,10.5,0,0,0,3.475-.665,7.319,7.319,0,0,0,4.187-4.187,10.47,10.47,0,0,0,.665-3.474c.069-1.527.086-2.014.086-5.9s-.016-4.375-.086-5.9a10.5,10.5,0,0,0-.665-3.474A7.039,7.039,0,0,0,26.227,2.4,7,7,0,0,0,23.692.752,10.483,10.483,0,0,0,20.217.087C18.691.017,18.2,0,14.316,0S9.94.016,8.413.087" transform="translate(0 0)" fill="#fff"/>
  <path id="Path_631" data-name="Path 631" d="M9.544,14.314a4.771,4.771,0,1,1,4.771,4.772,4.771,4.771,0,0,1-4.771-4.772m-2.58,0a7.35,7.35,0,1,0,7.35-7.35,7.35,7.35,0,0,0-7.35,7.35M20.238,6.673a1.718,1.718,0,1,0,1.718-1.717h0a1.719,1.719,0,0,0-1.718,1.717M8.532,25.966a7.912,7.912,0,0,1-2.658-.492A4.449,4.449,0,0,1,4.227,24.4a4.416,4.416,0,0,1-1.071-1.645A7.9,7.9,0,0,1,2.664,20.1c-.069-1.509-.083-1.962-.083-5.785S2.6,10.04,2.664,8.53a7.964,7.964,0,0,1,.492-2.658A4.449,4.449,0,0,1,4.227,4.225,4.412,4.412,0,0,1,5.873,3.154a7.9,7.9,0,0,1,2.658-.492c1.509-.069,1.962-.083,5.783-.083s4.275.015,5.785.083a7.964,7.964,0,0,1,2.658.492A4.435,4.435,0,0,1,24.4,4.225a4.435,4.435,0,0,1,1.071,1.646,7.9,7.9,0,0,1,.492,2.658c.069,1.51.083,1.962.083,5.785s-.014,4.275-.083,5.785a7.941,7.941,0,0,1-.492,2.658,4.74,4.74,0,0,1-2.717,2.716,7.9,7.9,0,0,1-2.658.492c-1.509.069-1.962.083-5.785.083s-4.275-.014-5.783-.083M8.413.087A10.5,10.5,0,0,0,4.938.752,7.021,7.021,0,0,0,2.4,2.4,6.994,6.994,0,0,0,.752,4.938,10.5,10.5,0,0,0,.087,8.413C.016,9.939,0,10.427,0,14.314s.016,4.375.087,5.9A10.5,10.5,0,0,0,.752,23.69,7,7,0,0,0,2.4,26.226a7.038,7.038,0,0,0,2.536,1.651,10.506,10.506,0,0,0,3.475.665c1.527.069,2.014.087,5.9.087s4.375-.016,5.9-.087a10.5,10.5,0,0,0,3.475-.665,7.319,7.319,0,0,0,4.187-4.187,10.47,10.47,0,0,0,.665-3.474c.069-1.527.086-2.014.086-5.9s-.016-4.375-.086-5.9a10.5,10.5,0,0,0-.665-3.474A7.039,7.039,0,0,0,26.227,2.4,7,7,0,0,0,23.692.752,10.483,10.483,0,0,0,20.217.087C18.691.017,18.2,0,14.316,0S9.94.016,8.413.087" transform="translate(0 0)" fill="#fff"/>
</svg>
