<svg id="java" xmlns="http://www.w3.org/2000/svg" width="22.746" height="42.305" viewBox="0 0 22.746 42.305">
  <path id="Path_640" data-name="Path 640" d="M73.257,91.709s-1.108.645.79.863a16.6,16.6,0,0,0,6.008-.254,10.457,10.457,0,0,0,1.6.779C75.972,95.53,68.8,92.955,73.257,91.709Zm-.694-3.177s-1.243.92.656,1.117a23.443,23.443,0,0,0,7.754-.372A3.432,3.432,0,0,0,82.166,90C75.3,92.013,67.649,90.163,72.563,88.532Z" transform="translate(-65.737 -69.268)" fill="#3174b9" fill-rule="evenodd"/>
  <path id="Path_641" data-name="Path 641" d="M97.748,41.076c1.4,1.612-.367,3.062-.367,3.062s3.554-1.834,1.922-4.133c-1.524-2.142-2.693-3.206,3.635-6.876C102.938,33.129,93,35.609,97.748,41.076Z" transform="translate(-85.071 -27.201)" fill="#ca3132" fill-rule="evenodd"/>
  <path id="Path_642" data-name="Path 642" d="M71.3,82.793s.82.676-.9,1.2c-3.278.993-13.647,1.292-16.527.039-1.035-.451.907-1.075,1.517-1.207a3.971,3.971,0,0,1,1-.113C55.239,81.9,48.948,84.3,53.2,84.994,64.777,86.871,74.307,84.148,71.3,82.793ZM59.166,73.974s-5.274,1.253-1.867,1.708a39.629,39.629,0,0,0,6.976-.076c2.183-.183,4.374-.575,4.374-.575a9.331,9.331,0,0,0-1.326.71c-5.356,1.409-15.7.753-12.723-.687A9.967,9.967,0,0,1,59.166,73.974Zm9.461,5.288c5.444-2.828,2.927-5.547,1.17-5.181a4.138,4.138,0,0,0-.622.167.992.992,0,0,1,.465-.359c3.476-1.222,6.149,3.6-1.121,5.515A.482.482,0,0,0,68.627,79.262Z" transform="translate(-51.113 -58.002)" fill="#3174b9" fill-rule="evenodd"/>
  <path id="Path_643" data-name="Path 643" d="M87.1,8.5s3.014,3.016-2.86,7.653c-4.711,3.721-1.074,5.842,0,8.266-2.75-2.481-4.768-4.666-3.415-6.7C82.809,14.742,88.314,13.295,87.1,8.5Z" transform="translate(-72.866 -8.504)" fill="#ca3132" fill-rule="evenodd"/>
  <path id="Path_644" data-name="Path 644" d="M71.871,120.288c5.225.334,13.25-.186,13.44-2.658,0,0-.365.937-4.319,1.681a42.942,42.942,0,0,1-13.224.2S68.437,120.067,71.871,120.288Z" transform="translate(-63.283 -91.362)" fill="#3174b9" fill-rule="evenodd"/>
  <path id="Path_645" data-name="Path 645" d="M70.92,139.337h-.159v-.089h.429v.089h-.159v.445H70.92Zm.855.022h0l-.158.422h-.072l-.157-.422h0v.422h-.105v-.534h.155l.145.378.145-.378h.153v.534h-.1v-.422h0ZM56.864,144.35a2.374,2.374,0,0,1-1.481.667.945.945,0,0,1-1.028-1.041c0-.694.387-1.2,1.936-1.2h.573v1.575Zm1.36,1.534v-4.75c0-1.214-.692-2.015-2.361-2.015a6.229,6.229,0,0,0-2.521.547l.2.841a5.857,5.857,0,0,1,1.947-.387c.961,0,1.375.387,1.375,1.188v.6h-.48c-2.335,0-3.389.906-3.389,2.268,0,1.174.694,1.841,2,1.841a3.019,3.019,0,0,0,2.054-.855l.107.72Zm4.539,0h-1.7l-2.042-6.644h1.481l1.267,4.083.282,1.227a25.621,25.621,0,0,0,1.32-5.309h1.44A26.947,26.947,0,0,1,62.764,145.884Zm6.508-1.534a2.381,2.381,0,0,1-1.482.667.945.945,0,0,1-1.027-1.041c0-.694.387-1.2,1.936-1.2h.574Zm1.361,1.534v-4.75c0-1.214-.694-2.015-2.362-2.015a6.229,6.229,0,0,0-2.522.547l.2.841a5.866,5.866,0,0,1,1.949-.387c.96,0,1.374.387,1.374,1.188v.6h-.48c-2.336,0-3.389.906-3.389,2.268,0,1.174.693,1.841,2,1.841a3.023,3.023,0,0,0,2.055-.855l.107.72ZM51.5,147.013a3.571,3.571,0,0,1-1.7,1.268l-.672-.791a2.822,2.822,0,0,0,1.178-1.1,4.269,4.269,0,0,0,.254-1.924v-7.586h1.445v7.481A4.327,4.327,0,0,1,51.5,147.013Z" transform="translate(-49.132 -105.976)" fill="#ca3132" fill-rule="evenodd"/>
</svg>
