<svg id="knowledge" xmlns="http://www.w3.org/2000/svg" width="34.468" height="32.17" viewBox="0 0 34.468 32.17">
  <path id="Path_3614" data-name="Path 3614" d="M272.324,98.7a5.963,5.963,0,0,0,.7-9.056A5.638,5.638,0,0,0,268.959,88a5.835,5.835,0,0,0-5.663,5.888,5.927,5.927,0,0,0,2.462,4.812.309.309,0,0,1,.123.253v.767a1.722,1.722,0,0,0,.287,3.116v.673a1.725,1.725,0,0,0,1.723,1.723h2.3a1.725,1.725,0,0,0,1.723-1.723v-.673a1.722,1.722,0,0,0,.287-3.116v-.767A.31.31,0,0,1,272.324,98.7Zm-7.879-4.813a4.682,4.682,0,0,1,4.53-4.737h.066a4.5,4.5,0,0,1,3.179,1.314,4.814,4.814,0,0,1-.563,7.3,1.461,1.461,0,0,0-.606,1.189v.535H267.03v-.535a1.459,1.459,0,0,0-.6-1.188A4.776,4.776,0,0,1,264.445,93.884Zm5.745,10.2h-2.3a.575.575,0,0,1-.574-.574v-.574h3.447v.574A.575.575,0,0,1,270.19,104.083Zm1.149-2.3h-4.6a.574.574,0,0,1,0-1.149h4.6a.574.574,0,0,1,0,1.149Z" transform="translate(-245.538 -84.551)" fill="#fff"/>
  <path id="Path_3615" data-name="Path 3615" d="M351.651,124.242a2.6,2.6,0,0,1,1.5,1.7.574.574,0,1,0,1.106-.311,3.754,3.754,0,0,0-2.168-2.449.574.574,0,0,0-.435,1.063Z" transform="translate(-327.217 -117.166)" fill="#fff"/>
  <path id="Path_3616" data-name="Path 3616" d="M336.449,41.723V40.574a.574.574,0,0,0-1.149,0v1.149a.574.574,0,0,0,1.149,0Z" transform="translate(-312.372 -40)" fill="#fff"/>
  <path id="Path_3617" data-name="Path 3617" d="M284.273,53.263a.575.575,0,0,0,.524-.808l-.467-1.05a.574.574,0,0,0-1.05.467l.467,1.05A.574.574,0,0,0,284.273,53.263Z" transform="translate(-264.041 -50.269)" fill="#fff"/>
  <path id="Path_3618" data-name="Path 3618" d="M241.6,84.269a.574.574,0,0,0,.385-1l-.854-.769a.575.575,0,0,0-.769.854l.854.768A.572.572,0,0,0,241.6,84.269Z" transform="translate(-224.077 -79.31)" fill="#fff"/>
  <path id="Path_3619" data-name="Path 3619" d="M215.775,129.551a.574.574,0,0,0-.369-.724l-1.093-.355a.574.574,0,1,0-.355,1.093l1.093.355a.574.574,0,0,0,.724-.369Z" transform="translate(-199.375 -122.093)" fill="#fff"/>
  <path id="Path_3620" data-name="Path 3620" d="M209.656,179.71l-1.143.12a.574.574,0,0,0,.12,1.143l1.143-.12a.574.574,0,1,0-.12-1.143Z" transform="translate(-194.212 -169.674)" fill="#fff"/>
  <path id="Path_3621" data-name="Path 3621" d="M447.2,180.852l1.143.12a.574.574,0,0,0,.12-1.143l-1.143-.12a.574.574,0,0,0-.12,1.143Z" transform="translate(-415.758 -169.674)" fill="#fff"/>
  <path id="Path_3622" data-name="Path 3622" d="M442.384,129.949a.573.573,0,0,0,.178-.028l1.093-.355a.574.574,0,1,0-.355-1.093l-1.093.355a.574.574,0,0,0,.177,1.121Z" transform="translate(-411.233 -122.093)" fill="#fff"/>
  <path id="Path_3623" data-name="Path 3623" d="M419.49,84.124l.854-.768a.575.575,0,0,0-.769-.854l-.854.769a.574.574,0,1,0,.769.854Z" transform="translate(-389.627 -79.313)" fill="#fff"/>
  <path id="Path_3624" data-name="Path 3624" d="M381.429,53.263a.575.575,0,0,0,.525-.341l.467-1.05a.574.574,0,1,0-1.05-.467l-.467,1.05a.575.575,0,0,0,.524.808Z" transform="translate(-354.656 -50.269)" fill="#fff"/>
  <path id="Path_3625" data-name="Path 3625" d="M48.744,290.34H41.276v-.574c0-.863-1.122-1.491-1.466-1.663a.583.583,0,0,0-.092-.036L34.1,286.38c-.356-.314-1.628-1.418-3.183-2.538-2.483-1.787-4.407-2.693-5.722-2.693H20.6v-.574a.574.574,0,0,0-.574-.574H16.574a.574.574,0,0,0-.574.574v12.638a.574.574,0,0,0,.574.574h3.447a.574.574,0,0,0,.574-.574v-.574h1.7c.358.048,3.29.626,5.881,1.138,5.183,1.023,5.916,1.16,6.077,1.16H48.744a1.725,1.725,0,0,0,1.723-1.723v-1.149a1.725,1.725,0,0,0-1.723-1.723Zm-29.3,2.3h-2.3V281.149h2.3Zm29.872.574a.575.575,0,0,1-.574.574H34.278c-.358-.048-3.29-.626-5.881-1.138-5.184-1.023-5.916-1.16-6.078-1.16H20.6V282.3h4.6c2.174,0,6.68,3.626,8.233,5.023a.575.575,0,0,0,.219.123l5.694,1.708a2.143,2.143,0,0,1,.789.631v1.131a.575.575,0,0,1-.527.573l-5.587-1.118-3.94-2.252a.574.574,0,1,0-.57,1l4.021,2.3a.574.574,0,0,0,.172.065l5.745,1.149a.577.577,0,0,0,.113.011,1.726,1.726,0,0,0,1.625-1.149h7.566a.575.575,0,0,1,.574.574Z" transform="translate(-16 -262.766)" fill="#fff"/>
</svg>
