<svg xmlns="http://www.w3.org/2000/svg" width="39.65" height="27.148" viewBox="0 0 39.65 27.148">
  <g id="Group_245" data-name="Group 245" transform="translate(-11.241 -17.606)">
    <path id="laravel-1" d="M39.5,12.67c-.283-.283-3.912-4.854-4.524-5.608-.66-.754-.943-.613-1.367-.566s-5,.848-5.514.9c-.518.094-.848.283-.518.754.283.424,3.3,4.666,3.959,5.655L19.514,16.676,9.994.7c-.377-.566-.471-.754-1.32-.707S1.181.6.71.6C.239.652-.28.841.191,1.972S8.2,19.315,8.392,19.786a1.62,1.62,0,0,0,2.027.943c1.32-.33,5.844-1.508,8.342-2.168,1.32,2.356,3.959,7.164,4.477,7.87.66.943,1.131.754,2.121.471.8-.236,12.348-4.383,12.866-4.619s.848-.377.471-.9c-.283-.377-3.3-4.477-4.9-6.6,1.084-.283,5-1.32,5.42-1.461.471-.141.566-.377.283-.66ZM17.676,17.147c-.141.047-6.881,1.65-7.211,1.744-.377.094-.377.047-.377-.094C9.994,18.655,2.077,2.254,1.935,2.066c-.094-.189-.094-.377,0-.377S8.3,1.123,8.486,1.123c.236,0,.189.047.283.189,0,0,8.813,15.223,8.954,15.458.189.236.094.33-.047.377Zm18.946,3.535c.094.189.236.283-.141.377-.33.141-11.358,3.865-11.594,3.959s-.377.141-.66-.283-3.865-6.6-3.865-6.6L32.1,15.073c.283-.094.377-.141.566.141.189.33,3.865,5.326,3.959,5.467Zm.754-8.295c-.283.047-4.571,1.131-4.571,1.131L29.27,8.711c-.094-.141-.189-.283.047-.33s4.242-.754,4.43-.8.33-.094.566.236c.236.283,3.252,4.147,3.393,4.289s-.047.236-.33.283Z" transform="translate(11.235 17.621)" fill="#fb503b"/>
  </g>
</svg>
