<svg xmlns="http://www.w3.org/2000/svg" width="29.744" height="28.423" viewBox="0 0 29.744 28.423">
  <path id="linkedin-icon-1" d="M0,8.3A3.092,3.092,0,0,1,1,5.933,3.687,3.687,0,0,1,3.618,5a3.577,3.577,0,0,1,2.555.919,3.238,3.238,0,0,1,1,2.469,3.023,3.023,0,0,1-.976,2.3,3.693,3.693,0,0,1-2.641.947H3.531a3.514,3.514,0,0,1-2.555-.947A3.182,3.182,0,0,1,0,8.3ZM.373,33.423V14.245H6.747V33.423Zm9.905,0h6.374V22.714a3.738,3.738,0,0,1,1.45-3.2,3.119,3.119,0,0,1,2.053-.675q3.216,0,3.216,4.335v10.25h6.374v-11q0-4.249-2.01-6.445a6.856,6.856,0,0,0-5.312-2.2,6.516,6.516,0,0,0-5.771,3.187v.057h-.029l.029-.057V14.245H10.278q.057.919.057,5.713T10.278,33.423Z" transform="translate(0 -5)" fill="#fff"/>
</svg>
