<svg xmlns="http://www.w3.org/2000/svg" xmlns:xlink="http://www.w3.org/1999/xlink" width="163.999" height="51.125" viewBox="0 0 163.999 51.125">
  <defs>
    <linearGradient id="linear-gradient" x1="0.713" y1="0.009" x2="0.292" y2="0.901" gradientUnits="objectBoundingBox">
      <stop offset="0.131" stop-color="#e87015"/>
      <stop offset="0.781" stop-color="#d43616"/>
    </linearGradient>
    <linearGradient id="linear-gradient-2" x1="0.763" y1="0.061" x2="0.148" y2="0.934" gradientUnits="objectBoundingBox">
      <stop offset="0.358" stop-color="#ec8012"/>
      <stop offset="0.577" stop-color="#df5914"/>
      <stop offset="0.761" stop-color="#d73f15"/>
      <stop offset="0.872" stop-color="#d43616"/>
    </linearGradient>
    <linearGradient id="linear-gradient-3" x1="0.708" y1="0.099" x2="0.287" y2="0.991" gradientUnits="objectBoundingBox">
      <stop offset="0.508" stop-color="#e81"/>
      <stop offset="0.93" stop-color="#d43616"/>
    </linearGradient>
    <linearGradient id="linear-gradient-4" x1="0.852" y1="0.066" x2="0.237" y2="0.939" gradientUnits="objectBoundingBox">
      <stop offset="0.176" stop-color="#e81"/>
      <stop offset="0.361" stop-color="#ed8411"/>
      <stop offset="0.888" stop-color="#cc1f16"/>
    </linearGradient>
  </defs>
  <g id="Group_2128" data-name="Group 2128" transform="translate(-146.237 -164.655)">
    <g id="Group_3" data-name="Group 3" transform="translate(146.237 164.655)">
      <path id="Path_1" data-name="Path 1" d="M285.894,293.484a19.375,19.375,0,1,0,19.375,19.375A19.375,19.375,0,0,0,285.894,293.484Zm.008,26.9a7.527,7.527,0,1,1,7.527-7.527A7.527,7.527,0,0,1,285.9,320.379Z" transform="translate(-254.966 -281.111)" fill="#e81" style="isolation: isolate"/>
      <g id="Group_1" data-name="Group 1" transform="translate(11.552 12.371)">
        <path id="Path_2" data-name="Path 2" d="M266.539,424.634a19.375,19.375,0,0,0,19.175,19.175l.2,0,.2,0a13.448,13.448,0,0,0-.2-26.9,7.52,7.52,0,0,1,7.52,7.52,13.448,13.448,0,0,1-26.9.2Z" transform="translate(-266.537 -405.057)" fill="url(#linear-gradient)" style="isolation: isolate"/>
        <path id="Path_3" data-name="Path 3" d="M389.969,368.642a7.52,7.52,0,0,1,7.52-7.52,13.448,13.448,0,0,1,.2,26.9,19.375,19.375,0,0,0,19.175-19.175c0-.066,0-.133,0-.2s0-.133,0-.2a13.448,13.448,0,0,0-26.9.2Z" transform="translate(-378.112 -349.265)" fill="url(#linear-gradient-2)" style="isolation: isolate"/>
        <path id="Path_4" data-name="Path 4" d="M328.249,306.913A13.44,13.44,0,0,0,341.7,320.361a7.52,7.52,0,0,1-7.52-7.52,13.448,13.448,0,0,1,26.9-.2A19.375,19.375,0,0,0,341.9,293.466l-.2,0-.2,0a13.44,13.44,0,0,0-13.249,13.447Z" transform="translate(-322.32 -293.464)" fill="url(#linear-gradient-3)" style="isolation: isolate"/>
        <path id="Path_5" data-name="Path 5" d="M266.519,312.859c0,.066,0,.133,0,.2a13.448,13.448,0,0,0,26.9-.2,7.52,7.52,0,0,1-7.52,7.52,13.448,13.448,0,0,1-.2-26.9,19.375,19.375,0,0,0-19.175,19.175C266.52,312.726,266.519,312.793,266.519,312.859Z" transform="translate(-266.519 -293.482)" fill="url(#linear-gradient-4)" style="isolation: isolate"/>
      </g>
      <g id="Group_2" data-name="Group 2" transform="translate(0)">
        <path id="Path_6" data-name="Path 6" d="M242.087,239.6l-11.07,1.537,1.367,2.931.954,2.045c1.073,2.3,6.279,2.143,11.626-.352s8.813-6.383,7.74-8.683c-.008-.018-.023-.034-.031-.051l-2.3-4.922Z" transform="translate(-222.874 -225.629)"/>
        <path id="Path_7" data-name="Path 7" d="M146.237,179.793l4.035-.376v-.769l1.22-.7.269.1-.969.767.061.544s-.061,6.3,1.475,8.645a3.5,3.5,0,0,0,3.073-1.434l-2.8-7.075-.267-.573,2.046-1.583.024.473-1.446,1.35.92-.086,11.07-1.537,8.29-7.5,5.453-5.394-19.136,1.327Z" transform="translate(-146.237 -164.655)"/>
      </g>
    </g>
    <g id="Group_7" data-name="Group 7" transform="translate(206.112 171.471)">
      <g id="Group_5" data-name="Group 5" transform="translate(4.486 0)">
        <path id="Path_8" data-name="Path 8" d="M1749.924,343.584c3.877,0,3.849,5.763,0,5.763C1746.133,349.347,1746.075,343.584,1749.924,343.584Z" transform="translate(-1657.669 -333.215)" fill="#e76c2d" style="isolation: isolate"/>
        <g id="Group_4" data-name="Group 4">
          <path id="Path_1-2" data-name="Path 1" d="M824.408,235.764a8.059,8.059,0,1,0,8.059,8.059h0A8.055,8.055,0,0,0,824.408,235.764Zm0,12.579a4.533,4.533,0,1,1,4.533-4.533A4.531,4.531,0,0,1,824.408,248.343Z" transform="translate(-816.349 -235.751)"/>
          <path id="Path_2-2" data-name="Path 2" d="M1401.84,235.764a8.059,8.059,0,1,0,8.059,8.059h0A8.064,8.064,0,0,0,1401.84,235.764Zm0,12.579a4.533,4.533,0,1,1,4.533-4.533h0A4.531,4.531,0,0,1,1401.84,248.343Z" transform="translate(-1338.322 -235.751)"/>
          <path id="Path_3-2" data-name="Path 3" d="M1013.766,235.764h-3.512v9.212a3.372,3.372,0,0,1-3.367,3.367h-.8a3.372,3.372,0,0,1-3.367-3.367v-9.212h-3.513v9.212a6.89,6.89,0,0,0,6.88,6.879h.8a6.89,6.89,0,0,0,6.88-6.879Z" transform="translate(-981.649 -235.751)"/>
          <path id="Path_4-2" data-name="Path 4" d="M1173.694,238.971h4.082v-3.208h-7.767c-.014.04-.014.093-.027.133-.027,3.208-.053,6.4-.053,9.61a6.463,6.463,0,0,0,5.833,6.323c.556.053,1.127.013,1.71.013-.132-1.246-.252-2.4-.384-3.552a.708.708,0,0,0-.053-.146h-.451a2.79,2.79,0,0,1-2.956-2.956c.014-1.935.04-3.871.053-5.806A3.847,3.847,0,0,0,1173.694,238.971Z" transform="translate(-1135.969 -235.75)"/>
          <path id="Path_5-2" data-name="Path 5" d="M1282.131,235.764h-4.666l-5.514,7.092v-7.092h-3.9v16.118h3.9v-7.224l5.474,7.224h4.719l-6.5-8.231Z" transform="translate(-1224.67 -235.751)"/>
          <path id="Path_6-2" data-name="Path 6" d="M1584.465,244.865a5.221,5.221,0,0,0-2.531-2.147,12.377,12.377,0,0,0-3.195-.848l-.3-.053a3.67,3.67,0,0,1-1.9-.822.823.823,0,0,1-.292-.676.877.877,0,0,1,.385-.636,1.615,1.615,0,0,1,.477-.239,4.466,4.466,0,0,1,2.28-.159,1.72,1.72,0,0,1,1.564,1.6.374.374,0,0,0,.4.358h.067c.57-.013,1.14-.04,1.71-.053.345-.013.69-.013,1.034-.026a.564.564,0,0,0,.146-.026c.027,0,.04-.013.066-.013l.132-.027v-.133a4.774,4.774,0,0,0-1.153-3.327,5.563,5.563,0,0,0-3.883-1.962,9.083,9.083,0,0,0-1.048-.053,6.48,6.48,0,0,0-3.539.941,4.25,4.25,0,0,0-2.147,4.4,4.431,4.431,0,0,0,2.293,3.314,9.455,9.455,0,0,0,3.711,1.193,5.23,5.23,0,0,1,2.293.8.8.8,0,0,1,.331,1.074.88.88,0,0,1-.278.3,1.86,1.86,0,0,1-.6.318,4.244,4.244,0,0,1-1.352.212,4.973,4.973,0,0,1-1.392-.2,1.809,1.809,0,0,1-1.551-1.829.8.8,0,0,0-.04-.172c-.013-.026-.013-.066-.027-.093l-.026-.133h-3.486v.159a5.177,5.177,0,0,0,2.108,4.52,6.96,6.96,0,0,0,4.414,1.3h.238a6.527,6.527,0,0,0,3.672-1.074A4.422,4.422,0,0,0,1584.465,244.865Z" transform="translate(-1499.978 -235.626)"/>
        </g>
      </g>
      <g id="Group_6" data-name="Group 6" transform="translate(0 23.255)">
        <path id="Path_9" data-name="Path 9" d="M780.663,489.258h-7.8L771.185,493h-1.54l6.4-14h1.46l6.4,14h-1.56Zm-.54-1.2-3.359-7.519-3.36,7.519Z" transform="translate(-769.645 -478.88)"/>
        <path id="Path_10" data-name="Path 10" d="M927.256,484.87a7.028,7.028,0,0,1,7.339-7.119,6.777,6.777,0,0,1,5.119,2.04l-.94.94a5.548,5.548,0,0,0-4.14-1.66,5.8,5.8,0,1,0,0,11.6,5.492,5.492,0,0,0,4.14-1.68l.94.94a6.806,6.806,0,0,1-5.139,2.06A7.022,7.022,0,0,1,927.256,484.87Z" transform="translate(-912.118 -477.751)"/>
        <path id="Path_11" data-name="Path 11" d="M1073.817,489.258h-7.8l-1.68,3.739h-1.54l6.4-14h1.459l6.4,14h-1.56Zm-.54-1.2-3.359-7.519-3.36,7.519Z" transform="translate(-1034.642 -478.88)"/>
        <path id="Path_12" data-name="Path 12" d="M1235.4,479h5.7c4.479,0,7.5,2.88,7.5,7s-3.019,7-7.5,7h-5.7Zm5.619,12.718c3.719,0,6.119-2.36,6.119-5.719s-2.4-5.719-6.119-5.719h-4.14v11.438Z" transform="translate(-1190.666 -478.88)"/>
        <path id="Path_13" data-name="Path 13" d="M1417.274,491.718V493h-9.9V479h9.6v1.28h-8.119v4.979h7.239v1.26h-7.239v5.2Z" transform="translate(-1346.124 -478.88)"/>
        <path id="Path_14" data-name="Path 14" d="M1561.2,479v14h-1.42V481.8l-5.5,9.419h-.7l-5.5-9.359V493h-1.42V479h1.22l6.079,10.378L1559.98,479Z" transform="translate(-1472.033 -478.88)"/>
        <path id="Path_15" data-name="Path 15" d="M1729.027,488.159V493h-1.46v-4.839l-5.6-9.159h1.579l4.8,7.859,4.8-7.859h1.48Z" transform="translate(-1630.502 -478.88)"/>
      </g>
    </g>
  </g>
</svg>
