<svg id="mail" xmlns="http://www.w3.org/2000/svg" class="fill-style" width="20" height="14.063" viewBox="0 0 20 14.063">
  <g id="Group_315" data-name="Group 315">
    <path id="Path_705" data-name="Path 705" d="M18.242,76H1.758A1.76,1.76,0,0,0,0,77.758V88.3a1.76,1.76,0,0,0,1.758,1.758H18.242A1.76,1.76,0,0,0,20,88.3V77.758A1.76,1.76,0,0,0,18.242,76ZM18,77.172l-6.753,6.717a1.758,1.758,0,0,1-2.487,0L2,77.172ZM1.172,88.066V78l5.064,5.037ZM2,88.891l5.062-5.03.862.857a2.93,2.93,0,0,0,4.142,0l.863-.858L18,88.891Zm16.823-.824-5.064-5.032L18.828,78Z" transform="translate(0 -76)" fill="#333"/>
  </g>
</svg>
