<svg xmlns="http://www.w3.org/2000/svg" width="20" height="13.684" viewBox="0 0 20 13.684">
  <g id="online-course" transform="translate(0 0)">
    <path id="Path_4750" data-name="Path 4750" d="M21.474,17.474a.529.529,0,0,1-.224-.05L12.3,13.213a.527.527,0,0,1,0-.953L21.25,8.05a.526.526,0,0,1,.448,0l8.947,4.211a.527.527,0,0,1,0,.953L21.7,17.424A.53.53,0,0,1,21.474,17.474Zm-7.711-4.737,7.711,3.629,7.711-3.629L21.474,9.108Z" transform="translate(-12 -8)" fill="#333"/>
    <path id="Path_4751" data-name="Path 4751" d="M23.842,26.588a.527.527,0,0,1-.235-.055l-6.316-3.158A.527.527,0,0,1,17,22.9V18.879a.526.526,0,0,1,.75-.476l6.092,2.867L29.934,18.4a.527.527,0,0,1,.751.476V22.9a.527.527,0,0,1-.291.471l-6.316,3.158A.527.527,0,0,1,23.842,26.588Zm-5.789-4.009,5.789,2.895,5.789-2.895v-2.87l-5.565,2.619a.526.526,0,0,1-.448,0l-5.565-2.619Z" transform="translate(-14.368 -12.904)" fill="#333"/>
    <path id="Path_4752" data-name="Path 4752" d="M38.474,17.053H29.526a.526.526,0,1,1,0-1.053h8.947a.526.526,0,0,1,0,1.053Z" transform="translate(-20.053 -11.789)" fill="#333"/>
    <path id="Path_4753" data-name="Path 4753" d="M46.526,21.789A.527.527,0,0,1,46,21.263V16.526a.526.526,0,0,1,1.053,0v4.737A.527.527,0,0,1,46.526,21.789Z" transform="translate(-28.105 -11.789)" fill="#333"/>
    <path id="Path_4754" data-name="Path 4754" d="M29.526,17.158A.527.527,0,0,1,29,16.632V14.526a.526.526,0,0,1,1.053,0v2.105A.527.527,0,0,1,29.526,17.158Z" transform="translate(-20.053 -10.842)" fill="#333"/>
    <path id="Path_4755" data-name="Path 4755" d="M44.526,27.631a.526.526,0,0,1-.437-.818l1.053-1.579a.526.526,0,0,1,.876.584L44.964,27.4A.526.526,0,0,1,44.526,27.631Z" transform="translate(-27.158 -16.052)" fill="#333"/>
    <path id="Path_4756" data-name="Path 4756" d="M47.58,27.631a.526.526,0,0,1-.438-.234l-1.053-1.579a.526.526,0,1,1,.876-.584l1.053,1.579a.526.526,0,0,1-.437.818Z" transform="translate(-28.105 -16.052)" fill="#333"/>
    <path id="Path_4757" data-name="Path 4757" d="M29.526,26.632A.527.527,0,0,1,29,26.105V24.526a.526.526,0,0,1,1.053,0v1.579A.527.527,0,0,1,29.526,26.632Z" transform="translate(-20.053 -15.579)" fill="#333"/>
  </g>
</svg>
