<svg xmlns="http://www.w3.org/2000/svg" width="16.98" height="17.013" viewBox="0 0 16.98 17.013">
  <g id="phone-call" transform="translate(0.52 0.608)">
    <g id="Group_457" data-name="Group 457">
      <path id="Path_3524" data-name="Path 3524" d="M15.975,11.658,13.758,9.441A1.474,1.474,0,0,0,11.3,10a1.509,1.509,0,0,1-1.742.95A6.836,6.836,0,0,1,5.445,6.828,1.435,1.435,0,0,1,6.4,5.087a1.474,1.474,0,0,0,.554-2.454L4.733.416A1.581,1.581,0,0,0,2.6.416l-1.5,1.5C-.413,3.5,1.249,7.7,4.97,11.42s7.917,5.463,9.5,3.879l1.5-1.5A1.581,1.581,0,0,0,15.975,11.658Z" transform="translate(-0.539 0)" fill="none" stroke="#333" stroke-linecap="round" stroke-linejoin="round" stroke-width="1"/>
    </g>
  </g>
</svg>
