<svg xmlns="http://www.w3.org/2000/svg" width="20" height="16.499" viewBox="0 0 20 16.499">
  <path id="briefcase_1_" data-name="briefcase (1)" d="M18.006,3.009h-4.36V1.528A1.53,1.53,0,0,0,12.118,0H7.882A1.53,1.53,0,0,0,6.354,1.528V3.009H1.994A2,2,0,0,0,0,5v9.5A2,2,0,0,0,1.994,16.5H18.006A2,2,0,0,0,20,14.506V5a2,2,0,0,0-1.994-1.994ZM7.541,1.528a.342.342,0,0,1,.341-.341h4.236a.342.342,0,0,1,.341.341V3.009H7.541ZM1.187,5A.807.807,0,0,1,1.994,4.2H18.006A.807.807,0,0,1,18.813,5V6.766H1.187Zm6.695,2.95h4.236v.506a.981.981,0,0,1-.98.98H8.862a.981.981,0,0,1-.98-.98Zm10.931,6.552a.807.807,0,0,1-.806.806H1.994a.807.807,0,0,1-.806-.806V7.953H6.694v.506a2.17,2.17,0,0,0,2.168,2.167h2.276a2.17,2.17,0,0,0,2.168-2.167V7.953h5.507Zm0,0" transform="translate(0 0)"/>
</svg>
