<svg id="education" xmlns="http://www.w3.org/2000/svg" width="20" height="20" viewBox="0 0 20 20">
  <path id="Path_3558" data-name="Path 3558" d="M112.386,3.44l2.316.817V7.526a.579.579,0,0,0,.579.579H123a.579.579,0,0,0,.579-.579V4.258l1.544-.545v2.27a.579.579,0,0,0,1.158,0V2.894a.579.579,0,0,0-.386-.546L119.334.032a.579.579,0,0,0-.385,0l-6.562,2.316a.579.579,0,0,0,0,1.092Zm10.036,3.507H115.86V4.666l3.088,1.09a.579.579,0,0,0,.385,0l3.088-1.09Zm-3.281-5.755,4.822,1.7-4.822,1.7-4.822-1.7Z" transform="translate(-107.44 0.001)" fill="#333"/>
  <path id="Path_3559" data-name="Path 3559" d="M18.785,272.175a1.778,1.778,0,0,0-1.994.6l-2.182,2.82c0-.015,0-.031,0-.046a1.944,1.944,0,0,0-1.953-1.93H8.78a4.02,4.02,0,0,0-4.4-.5v-.083a.583.583,0,0,0-.586-.579H.586a.583.583,0,0,0-.586.579v7.72a.583.583,0,0,0,.586.579h3.2a.583.583,0,0,0,.586-.579v-.579h9.6a4.1,4.1,0,0,0,3.45-1.861l2.287-3.515a1.758,1.758,0,0,0-.931-2.63ZM3.2,280.182H1.172V273.62H3.2Zm15.527-6-2.287,3.515a2.926,2.926,0,0,1-2.464,1.33h-9.6V274.5l.2-.138a2.834,2.834,0,0,1,3.578.258.59.59,0,0,0,.406.162h4.1a.772.772,0,1,1,0,1.544H8.477a.579.579,0,1,0,0,1.158h4.7a2.959,2.959,0,0,0,2.327-1.136l2.216-2.864a.6.6,0,0,1,.688-.207.594.594,0,0,1,.419.577A.6.6,0,0,1,18.73,274.179Z" transform="translate(0 -261.34)" fill="#333"/>
</svg>
