<svg id="surface1" xmlns="http://www.w3.org/2000/svg" width="20" height="20" viewBox="0 0 20 20">
  <path id="Path_3563" data-name="Path 3563" d="M19.414,1.443H16.848q.014-.426.014-.858A.586.586,0,0,0,16.276,0H3.724a.586.586,0,0,0-.586.586q0,.431.014.858H.586A.586.586,0,0,0,0,2.029,12.7,12.7,0,0,0,1.932,9,6.113,6.113,0,0,0,6.576,12.02a6.017,6.017,0,0,0,1.269,1.066v2.6H6.862a2.157,2.157,0,0,0-2.155,2.155v.983H4.665a.586.586,0,0,0,0,1.172H15.335a.586.586,0,0,0,0-1.172h-.042v-.983a2.157,2.157,0,0,0-2.155-2.155h-.983v-2.6a6.013,6.013,0,0,0,1.269-1.066A6.114,6.114,0,0,0,18.068,9,12.7,12.7,0,0,0,20,2.029.586.586,0,0,0,19.414,1.443ZM2.908,8.355a11.292,11.292,0,0,1-1.723-5.74H3.218a19.58,19.58,0,0,0,1.82,7.108q.234.469.489.886A5.651,5.651,0,0,1,2.908,8.355Zm11.213,9.49v.983H5.879v-.983a.984.984,0,0,1,.983-.983h6.276A.984.984,0,0,1,14.121,17.845ZM10.983,15.69H9.017v-2.1a3.812,3.812,0,0,0,1.966,0Zm.363-3.489a.57.57,0,0,0-.076.038,2.736,2.736,0,0,1-2.54,0,.583.583,0,0,0-.077-.039,4.717,4.717,0,0,1-1.324-1.092.593.593,0,0,0-.075-.087A9.237,9.237,0,0,1,6.086,9.2a19.342,19.342,0,0,1-1.77-8.028H15.683A19.347,19.347,0,0,1,13.914,9.2a9.243,9.243,0,0,1-1.168,1.822.578.578,0,0,0-.075.087A4.718,4.718,0,0,1,11.346,12.2Zm5.746-3.846a5.651,5.651,0,0,1-2.62,2.254q.254-.417.489-.886a19.583,19.583,0,0,0,1.82-7.108h2.034A11.293,11.293,0,0,1,17.092,8.355Zm0,0" fill="#333"/>
</svg>
