<svg id="certificate_3_" data-name="certificate (3)" xmlns="http://www.w3.org/2000/svg" width="19.5" height="17.977" viewBox="0 0 19.5 17.977">
  <path id="Path_3564" data-name="Path 3564" d="M18.929,20H.571A.571.571,0,0,0,0,20.571V32.686a.571.571,0,0,0,.571.571H7.528v4.148a.571.571,0,0,0,.921.451l1.3-1.008,1.3,1.008a.571.571,0,0,0,.921-.451V33.257h6.957a.571.571,0,0,0,.571-.571V20.571A.571.571,0,0,0,18.929,20ZM12.538,32.115a3.138,3.138,0,1,0-5.576,0H4.925L1.143,28.32V24.9L4.89,21.143h9.685l3.783,3.795v3.418L14.61,32.115Zm-2.788.563a2,2,0,1,1,2-2A2,2,0,0,1,9.75,32.678Zm8.607-9.359-2.169-2.176h2.169ZM3.276,21.143,1.143,23.283V21.143Zm-2.134,8.8,2.169,2.176H1.143ZM10.1,35.674a.571.571,0,0,0-.7,0l-.729.565V33.628a3.132,3.132,0,0,0,2.158,0v2.611Zm6.123-3.559,2.134-2.141v2.141Z" transform="translate(0 -20)" fill="#333"/>
  <path id="Path_3565" data-name="Path 3565" d="M169.8,95.1h5.467a.571.571,0,1,0,0-1.143H169.8a.571.571,0,1,0,0,1.143Z" transform="translate(-162.784 -91.141)" fill="#333"/>
  <path id="Path_3566" data-name="Path 3566" d="M143.979,148.894h-8.047a.571.571,0,0,0,0,1.143h8.047a.571.571,0,0,0,0-1.143Z" transform="translate(-130.206 -143.985)" fill="#333"/>
</svg>
