<svg xmlns="http://www.w3.org/2000/svg" xmlns:xlink="http://www.w3.org/1999/xlink" width="41.364" height="41.149" viewBox="0 0 41.364 41.149">
  <defs>
    <linearGradient id="linear-gradient" x1="0.13" y1="0.12" x2="0.796" y2="0.782" gradientUnits="objectBoundingBox">
      <stop offset="0" stop-color="#387eb8"/>
      <stop offset="1" stop-color="#366994"/>
    </linearGradient>
    <linearGradient id="linear-gradient-2" x1="0.191" y1="0.206" x2="0.907" y2="0.884" gradientUnits="objectBoundingBox">
      <stop offset="0" stop-color="#ffe052"/>
      <stop offset="1" stop-color="#ffc331"/>
    </linearGradient>
  </defs>
  <g id="python-5" transform="translate(-0.145 -0.072)">
    <path id="Path_4745" data-name="Path 4745" d="M20.678.072c-10.5,0-9.845,4.554-9.845,4.554l.012,4.718H20.865V10.76h-14S.145,10,.145,20.593,6.01,30.813,6.01,30.813h3.5V25.9s-.189-5.865,5.771-5.865H25.22s5.584.09,5.584-5.4V5.562S31.652.072,20.678.072ZM15.153,3.245a1.8,1.8,0,1,1-1.275.528A1.8,1.8,0,0,1,15.153,3.245Z" transform="translate(0 0)" fill="url(#linear-gradient)"/>
    <path id="Path_4746" data-name="Path 4746" d="M76.286,95.064c10.5,0,9.845-4.554,9.845-4.554l-.012-4.718H76.1V84.376h14s6.719.762,6.719-9.834-5.865-10.22-5.865-10.22h-3.5v4.917s.189,5.865-5.771,5.865H71.743s-5.584-.09-5.584,5.4v9.072s-.848,5.49,10.126,5.49Zm5.525-3.172a1.8,1.8,0,1,1,1.275-.528,1.8,1.8,0,0,1-1.275.528Z" transform="translate(-55.309 -53.842)" fill="url(#linear-gradient-2)"/>
  </g>
</svg>
