<svg id="Group_222" data-name="Group 222" xmlns="http://www.w3.org/2000/svg" width="46.905" height="41.732" viewBox="0 0 46.905 41.732">
  <g id="react">
    <path id="Subtraction_1" data-name="Subtraction 1" d="M32.975,41.732h0c-2.306,0-5.207-1.4-8.168-3.952-.436-.376-.863-.765-1.268-1.157-.331.32-.66.624-.979.9-3.045,2.662-6.188,4.188-8.623,4.188a4.422,4.422,0,0,1-2.238-.55,5.575,5.575,0,0,1-2.394-3.928,18.052,18.052,0,0,1,.171-6.748c.105-.552.229-1.115.369-1.675-.422-.12-.849-.253-1.269-.4a18.725,18.725,0,0,1-6.228-3.368A5.856,5.856,0,0,1,0,20.827a5.573,5.573,0,0,1,2.207-4.036,18.059,18.059,0,0,1,5.931-3.224c.539-.188,1.123-.371,1.737-.546-.13-.519-.246-1.042-.347-1.554a18.73,18.73,0,0,1-.233-6.879,5.576,5.576,0,0,1,2.372-4,4.342,4.342,0,0,1,2.2-.547A9.466,9.466,0,0,1,18.019,1.2,22.05,22.05,0,0,1,22.7,4.463c.266.236.528.478.777.718.381-.367.774-.728,1.168-1.072C27.687,1.459,30.652,0,32.991,0a4.23,4.23,0,0,1,2.142.531A5.8,5.8,0,0,1,37.6,4.747a19.682,19.682,0,0,1-.307,7.274c-.072.345-.151.691-.234,1.03.513.148,1.021.308,1.511.476a18.72,18.72,0,0,1,6.069,3.245,5.577,5.577,0,0,1,2.27,4.056,5.8,5.8,0,0,1-2.421,4.24,19.673,19.673,0,0,1-6.454,3.367c-.272.09-.557.179-.873.272.11.443.2.866.281,1.254a18.716,18.716,0,0,1,.206,7.078,5.855,5.855,0,0,1-2.478,4.148A4.315,4.315,0,0,1,32.975,41.732Zm2.244-12.517a46.7,46.7,0,0,1-6.352.979,47.128,47.128,0,0,1-3.932,4.993c.387.372.784.735,1.179,1.075,2.525,2.173,5.085,3.471,6.848,3.471a2.374,2.374,0,0,0,1.2-.28A4.153,4.153,0,0,0,35.7,36.541a16.947,16.947,0,0,0-.225-6.19C35.4,29.986,35.315,29.6,35.219,29.216ZM11.788,29.3c-.127.51-.242,1.034-.343,1.557-.8,4.228-.3,7.671,1.256,8.567a2.462,2.462,0,0,0,1.237.281,6.287,6.287,0,0,0,2.052-.406,16.929,16.929,0,0,0,5.251-3.287c.3-.266.6-.543.894-.823a48.768,48.768,0,0,1-4.026-4.975A47.065,47.065,0,0,1,11.788,29.3Zm8.92,1.07c.921,1.214,1.871,2.351,2.822,3.378a42.647,42.647,0,0,0,2.754-3.387c-.938.042-1.891.063-2.832.063s-1.858-.018-2.744-.053Zm-3.8-13.281c-.71,1.233-1.381,2.505-1.995,3.781.616,1.278,1.29,2.55,2,3.779.722,1.247,1.494,2.47,2.293,3.636,1.358.089,2.787.134,4.246.134s2.9-.051,4.3-.151c.79-1.188,1.547-2.409,2.25-3.63.713-1.236,1.391-2.513,2.015-3.8-.625-1.262-1.306-2.529-2.022-3.764s-1.47-2.442-2.26-3.608c-1.413-.107-2.853-.162-4.279-.162s-2.864.054-4.271.161c-.8,1.173-1.566,2.391-2.275,3.62Zm-3.058,6.137c-.593,1.407-1.1,2.8-1.52,4.141a42.7,42.7,0,0,0,4.323.695c-.521-.808-1.016-1.619-1.473-2.409S14.275,24.052,13.849,23.231Zm19.245-.072c-.426.822-.883,1.658-1.36,2.485-.462.8-.947,1.6-1.44,2.387a42.664,42.664,0,0,0,4.376-.746A42.567,42.567,0,0,0,33.094,23.159ZM10.412,14.952c-.53.15-1.073.321-1.615.508C4.734,16.877,2,19.033,2,20.827a4.152,4.152,0,0,0,1.751,2.788,16.928,16.928,0,0,0,5.471,2.906c.383.13.772.252,1.157.363A48.687,48.687,0,0,1,12.7,20.876a47.953,47.953,0,0,1-2.286-5.924Zm26.107.03h0a47.174,47.174,0,0,1-2.283,5.856,47.042,47.042,0,0,1,2.375,5.942c.29-.086.548-.167.788-.246,4.418-1.464,7.5-3.81,7.5-5.706a4.053,4.053,0,0,0-1.867-2.781,17.678,17.678,0,0,0-5.122-2.624c-.434-.15-.9-.3-1.394-.44ZM30.3,13.734c.489.767.969,1.556,1.426,2.346.469.811.923,1.632,1.348,2.44a42.583,42.583,0,0,0,1.5-4.038C33.227,14.173,31.788,13.921,30.3,13.734Zm-13.691,0c-1.485.185-2.915.431-4.252.731.406,1.31.908,2.676,1.49,4.059.423-.821.869-1.637,1.324-2.426s.948-1.6,1.438-2.363ZM32.979,2c-1.791,0-4.416,1.354-7.022,3.621-.365.319-.728.652-1.079.989a47.057,47.057,0,0,1,3.965,4.949,47.908,47.908,0,0,1,6.272.991c.073-.3.144-.61.211-.932.939-4.558.447-8.4-1.2-9.35A2.288,2.288,0,0,0,32.979,2Zm-19.095.044a2.4,2.4,0,0,0-1.214.283A4.055,4.055,0,0,0,11.2,5.335a17.678,17.678,0,0,0,.294,5.748c.094.477.2.963.322,1.445a48.853,48.853,0,0,1,6.26-.973,47.975,47.975,0,0,1,4-4.944c-.233-.223-.47-.442-.7-.65C18.6,3.508,15.807,2.044,13.885,2.044Zm9.565,9.265c.926,0,1.864.022,2.786.066a42.634,42.634,0,0,0-2.76-3.332c-.94,1.014-1.877,2.135-2.784,3.33C21.619,11.33,22.547,11.309,23.449,11.309Z" transform="translate(0 0)" fill="#53c1de"/>
    <path id="Path_636" data-name="Path 636" d="M112.232,94.665a4.189,4.189,0,1,1-4.188,4.188,4.188,4.188,0,0,1,4.188-4.188" transform="translate(-88.78 -78.027)" fill="#53c1de"/>
  </g>
</svg>
