<svg id="skills" xmlns="http://www.w3.org/2000/svg" width="34.467" height="30.832" viewBox="0 0 34.467 30.832">
  <g id="Group_723" data-name="Group 723" transform="translate(7.411 9.29)">
    <g id="Group_722" data-name="Group 722" transform="translate(0 0)">
      <path id="Path_3606" data-name="Path 3606" d="M123.518,175.758a.675.675,0,0,0-.29-.02h-.034a4.684,4.684,0,0,0,1.418-3.359v-6.7a.673.673,0,0,0-.673-.673h-4.987a3.742,3.742,0,0,0-3.738,3.738v3.64a4.684,4.684,0,0,0,1.418,3.359H116.6a.676.676,0,0,0-.29.02,6.842,6.842,0,0,0-6.217,6.8v3.306a.673.673,0,0,0,.673.673h18.3a.673.673,0,0,0,.673-.673v-3.305A6.842,6.842,0,0,0,123.518,175.758Zm-6.958-6.078v-.943h0a2.394,2.394,0,0,1,2.392-2.392h4.313v1.8a1.653,1.653,0,0,1-1.651,1.651H116.56Zm0,2.7v-1.233h5.054a2.979,2.979,0,0,0,1.651-.5v1.73a3.352,3.352,0,1,1-6.7,0Zm5.14,4.7-1.788,1.788-1.788-1.788Zm6.688,8.119H111.436v-1.937h5.493a.673.673,0,0,0,0-1.346h-5.453a5.5,5.5,0,0,1,4.785-4.794l3.175,3.175a.673.673,0,0,0,.952,0l3.175-3.175a5.494,5.494,0,0,1,4.826,5.445Z" transform="translate(-110.09 -165)" fill="#fff"/>
    </g>
  </g>
  <g id="Group_725" data-name="Group 725" transform="translate(16.56 26.202)">
    <g id="Group_724" data-name="Group 724" transform="translate(0 0)">
      <path id="Path_3607" data-name="Path 3607" d="M247.149,416.417a.673.673,0,1,0,.2.476A.678.678,0,0,0,247.149,416.417Z" transform="translate(-246 -416.22)" fill="#fff"/>
    </g>
  </g>
  <g id="Group_727" data-name="Group 727" transform="translate(14.684)">
    <g id="Group_726" data-name="Group 726" transform="translate(0 0)">
      <path id="Path_3608" data-name="Path 3608" d="M220.685,27a2.558,2.558,0,0,0-.673,5.026V33.67a.673.673,0,1,0,1.346,0V32.026A2.558,2.558,0,0,0,220.685,27Zm0,3.77a1.212,1.212,0,1,1,1.212-1.212A1.213,1.213,0,0,1,220.685,30.77Z" transform="translate(-218.127 -27)" fill="#fff"/>
    </g>
  </g>
  <g id="Group_729" data-name="Group 729" transform="translate(25.367 4.502)">
    <g id="Group_728" data-name="Group 728" transform="translate(0 0)">
      <path id="Path_3609" data-name="Path 3609" d="M382.214,94.62a2.558,2.558,0,0,0-4.03,3.078l-1.163,1.163a.673.673,0,0,0,.952.952l1.162-1.162a2.558,2.558,0,0,0,3.078-4.03Zm-.952,2.666a1.212,1.212,0,1,1,.355-.857A1.213,1.213,0,0,1,381.262,97.286Z" transform="translate(-376.824 -93.871)" fill="#fff"/>
    </g>
  </g>
  <g id="Group_731" data-name="Group 731" transform="translate(27.124 16.213)">
    <g id="Group_730" data-name="Group 730">
      <path id="Path_3610" data-name="Path 3610" d="M407.707,267.833a2.562,2.562,0,0,0-2.468,1.885H403.6a.673.673,0,0,0,0,1.346h1.644a2.558,2.558,0,1,0,2.468-3.231Zm0,3.77a1.212,1.212,0,1,1,1.212-1.212A1.213,1.213,0,0,1,407.707,271.6Z" transform="translate(-402.922 -267.833)" fill="#fff"/>
    </g>
  </g>
  <g id="Group_733" data-name="Group 733" transform="translate(24.571 18.097)">
    <g id="Group_732" data-name="Group 732" transform="translate(0 0)">
      <path id="Path_3611" data-name="Path 3611" d="M366.149,296.027a.673.673,0,1,0,.2.476A.678.678,0,0,0,366.149,296.027Z" transform="translate(-365 -295.83)" fill="#fff"/>
    </g>
  </g>
  <g id="Group_735" data-name="Group 735" transform="translate(0 16.195)">
    <g id="Group_734" data-name="Group 734">
      <path id="Path_3612" data-name="Path 3612" d="M6.67,269.464H5.026a2.558,2.558,0,1,0,0,1.346H6.67a.673.673,0,0,0,0-1.346Zm-4.112,1.885a1.212,1.212,0,1,1,1.212-1.212A1.213,1.213,0,0,1,2.558,271.349Z" transform="translate(0 -267.579)" fill="#fff"/>
    </g>
  </g>
  <g id="Group_737" data-name="Group 737" transform="translate(2.922 4.437)">
    <g id="Group_736" data-name="Group 736" transform="translate(0 0)">
      <path id="Path_3613" data-name="Path 3613" d="M49.339,97.9l-1.162-1.162a2.557,2.557,0,1,0-.952.952l1.162,1.162a.673.673,0,0,0,.952-.952Zm-2.526-1.575h0a1.212,1.212,0,1,1,.355-.857A1.213,1.213,0,0,1,46.812,96.322Z" transform="translate(-43.399 -92.907)" fill="#fff"/>
    </g>
  </g>
</svg>
