<svg id="team" xmlns="http://www.w3.org/2000/svg" width="34.468" height="25.303" viewBox="0 0 34.468 25.303">
  <g id="Group_739" data-name="Group 739" transform="translate(26.44 10.797)">
    <g id="Group_738" data-name="Group 738">
      <path id="Path_3632" data-name="Path 3632" d="M396.721,229.042a9.851,9.851,0,0,0-3.465-.593.5.5,0,0,0,0,1.01,8.719,8.719,0,0,1,3.013.487.5.5,0,0,0,.452-.9Z" transform="translate(-392.751 -228.449)" fill="#fff"/>
    </g>
  </g>
  <g id="Group_741" data-name="Group 741">
    <g id="Group_740" data-name="Group 740" transform="translate(0 0)">
      <path id="Path_3633" data-name="Path 3633" d="M32.927,86.645l-2.085-.6a.212.212,0,0,1-.153-.2v-.7a3.8,3.8,0,0,0,.483-.4,3.714,3.714,0,0,0,1.137-2.687v-.96l.2-.4a3.221,3.221,0,0,0,.338-1.433v-2.6a.5.5,0,0,0-.5-.5H27.485a3.208,3.208,0,0,0-3.2,3.2v.03a2.678,2.678,0,0,0,.281,1.191l.259.517v.825a3.94,3.94,0,0,0,1.62,3.185v.729c0,.113,0,.159-.417.278l-1.017.291-2.943-1.07a.5.5,0,0,0-.138-.387l-.941-.988V82.311c.1-.082.2-.166.292-.255a5.926,5.926,0,0,0,1.867-4.308V76.424a5.836,5.836,0,0,0,.54-2.454v-5.4a.5.5,0,0,0-.5-.5H15.621A4.829,4.829,0,0,0,10.8,72.89v1.08a5.836,5.836,0,0,0,.54,2.454v1.14A6.169,6.169,0,0,0,13.5,82.272v1.7l-.941.988a.5.5,0,0,0-.138.387l-3.106,1.13a2.648,2.648,0,0,0-.624.327L8.2,86.557a3.856,3.856,0,0,0,1.934-1.565.5.5,0,0,0,0-.452,8.97,8.97,0,0,1-.444-3.134c-.012-.357-.023-.694-.044-.994a4.392,4.392,0,0,0-4.283-4.248,4.392,4.392,0,0,0-4.283,4.248c-.021.3-.033.638-.044.995a8.97,8.97,0,0,1-.444,3.134.5.5,0,0,0,0,.452,3.856,3.856,0,0,0,1.936,1.564l-1.355.677A2.113,2.113,0,0,0,0,89.134v3.73a.5.5,0,0,0,1.01,0v-3.73a1.109,1.109,0,0,1,.616-1l1.687-.844.587.558a2.123,2.123,0,0,0,2.927,0l.587-.558.55.275a2.659,2.659,0,0,0-.406,1.41v3.886a.5.5,0,0,0,1.01,0V88.978a1.66,1.66,0,0,1,1.089-1.555l3.275-1.191L14.3,88.278a1.041,1.041,0,0,0,.766.46q.052.005.1.005a1.041,1.041,0,0,0,.738-.306l.832-.832v5.259a.5.5,0,0,0,1.01,0V87.605l.832.832a1.04,1.04,0,0,0,.738.306q.052,0,.1-.005a1.041,1.041,0,0,0,.766-.46l1.363-2.045,3.275,1.191a1.66,1.66,0,0,1,1.089,1.555v3.886a.5.5,0,0,0,1.01,0V88.978a2.669,2.669,0,0,0-.747-1.847L26.3,87.1a2.769,2.769,0,0,0,.47-.17l1.289,1.289v4.65a.5.5,0,0,0,1.01,0v-4.65l1.28-1.28a1.2,1.2,0,0,0,.215.085l2.085.6a1.119,1.119,0,0,1,.808,1.072v4.177a.5.5,0,1,0,1.01,0V88.688A2.134,2.134,0,0,0,32.927,86.645ZM3.239,85.753a3.63,3.63,0,0,1-1.62-1.04A5.565,5.565,0,0,0,1.906,83.5a3.765,3.765,0,0,0,1.333,1.644Zm2.892,1.366a1.114,1.114,0,0,1-1.536,0l-.47-.446a1.045,1.045,0,0,0,.123-.493v-.538a3.755,3.755,0,0,0,2.229,0v.538a1.045,1.045,0,0,0,.123.493ZM5.364,84.8A2.737,2.737,0,0,1,2.63,82.067a.5.5,0,0,0-.588-.5l0-.13c.011-.347.022-.675.042-.956a3.748,3.748,0,0,1,1.021-2.354,3.137,3.137,0,0,1,4.509,0,3.748,3.748,0,0,1,1.021,2.354c.02.281.031.609.042.956l0,.09A4.537,4.537,0,0,0,6.19,79.707a6.337,6.337,0,0,0-1.92-.3.5.5,0,0,0-.349.154L3.01,80.5a.5.5,0,0,0,.727.7l.758-.786a4.084,4.084,0,0,1,3.57,2.075A2.728,2.728,0,0,1,5.364,84.8Zm2.124.953v-.6a3.735,3.735,0,0,0,1.333-1.646,5.558,5.558,0,0,0,.287,1.206A3.647,3.647,0,0,1,7.488,85.754Zm4.859-8.191V76.311a.5.5,0,0,0-.05-.22,4.843,4.843,0,0,1-.49-2.122V72.89a3.818,3.818,0,0,1,3.814-3.814h7.053v4.894a4.843,4.843,0,0,1-.49,2.122.5.5,0,0,0-.05.22v1.438a4.847,4.847,0,0,1-1.548,3.571,5.022,5.022,0,0,1-.388.328l-.009.006a4.855,4.855,0,0,1-3.276.977A5,5,0,0,1,12.347,77.563ZM15.19,87.723a.032.032,0,0,1-.028.01.032.032,0,0,1-.026-.015l-1.57-2.355.505-.531,2.382,1.628Zm2.051-1.948-2.734-1.869v-.942a5.685,5.685,0,0,0,2.342.676q.2.013.4.013a5.848,5.848,0,0,0,2.729-.669v.922Zm2.1,1.943a.032.032,0,0,1-.026.015.031.031,0,0,1-.028-.01l-1.263-1.263,2.382-1.628.505.531Zm9.22-.426-1.146-1.146a1.385,1.385,0,0,0,.031-.3v-.213a3.541,3.541,0,0,0,1,.177l.116,0a3.75,3.75,0,0,0,1.113-.168v.2a1.207,1.207,0,0,0,.036.294Zm1.9-3.262a2.714,2.714,0,0,1-1.988.771,2.826,2.826,0,0,1-2.65-2.869v-.944a.5.5,0,0,0-.053-.226l-.312-.624a1.663,1.663,0,0,1-.175-.74v-.03a2.2,2.2,0,0,1,2.194-2.194h4.354v2.1a2.206,2.206,0,0,1-.232.981l-.255.51a.5.5,0,0,0-.053.226v1.08A2.713,2.713,0,0,1,30.468,84.03Z" transform="translate(0 -68.066)" fill="#fff"/>
    </g>
  </g>
  <g id="Group_743" data-name="Group 743" transform="translate(31.299 21.054)">
    <g id="Group_742" data-name="Group 742" transform="translate(0 0)">
      <path id="Path_3634" data-name="Path 3634" d="M465.428,380.814a.5.5,0,0,0-.5.5v3.239a.5.5,0,1,0,1.01,0v-3.239A.5.5,0,0,0,465.428,380.814Z" transform="translate(-464.923 -380.814)" fill="#fff"/>
    </g>
  </g>
  <g id="Group_745" data-name="Group 745" transform="translate(2.159 21.722)">
    <g id="Group_744" data-name="Group 744" transform="translate(0 0)">
      <path id="Path_3635" data-name="Path 3635" d="M32.582,390.728a.5.5,0,0,0-.5.5V393.8a.5.5,0,1,0,1.01,0v-2.572A.5.5,0,0,0,32.582,390.728Z" transform="translate(-32.077 -390.728)" fill="#fff"/>
    </g>
  </g>
  <g id="Group_747" data-name="Group 747" transform="translate(12.956 4.587)">
    <g id="Group_746" data-name="Group 746" transform="translate(0 0)">
      <path id="Path_3636" data-name="Path 3636" d="M200.88,137.7c-1.91-1.91-5.9-1.545-7.534-1.3a1.037,1.037,0,0,0-.886,1.033V138.6a.5.5,0,1,0,1.01,0v-1.163a.033.033,0,0,1,.026-.034,15.952,15.952,0,0,1,3.28-.16,5.212,5.212,0,0,1,3.389,1.175.5.5,0,0,0,.714-.714Z" transform="translate(-192.46 -136.203)" fill="#fff"/>
    </g>
  </g>
  <g id="Group_749" data-name="Group 749" transform="translate(10.797 22.134)">
    <g id="Group_748" data-name="Group 748" transform="translate(0 0)">
      <path id="Path_3637" data-name="Path 3637" d="M160.889,396.853a.5.5,0,0,0-.5.5v2.159a.5.5,0,1,0,1.01,0v-2.159A.5.5,0,0,0,160.889,396.853Z" transform="translate(-160.384 -396.853)" fill="#fff"/>
    </g>
  </g>
  <g id="Group_751" data-name="Group 751" transform="translate(22.674 22.134)">
    <g id="Group_750" data-name="Group 750" transform="translate(0 0)">
      <path id="Path_3638" data-name="Path 3638" d="M337.311,396.853a.5.5,0,0,0-.5.5v2.159a.5.5,0,1,0,1.01,0v-2.159A.5.5,0,0,0,337.311,396.853Z" transform="translate(-336.806 -396.853)" fill="#fff"/>
    </g>
  </g>
</svg>
