<svg id="twitter" xmlns="http://www.w3.org/2000/svg" width="35.108" height="28.523" viewBox="0 0 35.108 28.523">
  <path id="Path_632" data-name="Path 632" d="M23.458.006V0H25.1l.6.12A6.434,6.434,0,0,1,26.8.427a7.768,7.768,0,0,1,.95.443,9.031,9.031,0,0,1,.833.516,5.124,5.124,0,0,1,.665.551.922.922,0,0,0,.909.152,12.153,12.153,0,0,0,1.33-.4q.712-.253,1.409-.57t.848-.4L33.9.627,33.9.617,33.937.6l.032-.016L34,.57l.032-.016.006-.009.01-.006.01-.006.006-.009.032-.009.032-.006L34.12.554,34.111.6l-.016.047L34.079.7l-.016.032L34.047.76l-.016.047A1.1,1.1,0,0,0,34,.934a5.309,5.309,0,0,1-.3.633,7.918,7.918,0,0,1-.712,1.124,5.526,5.526,0,0,1-.766.861q-.342.294-.453.412a1.359,1.359,0,0,1-.269.222l-.158.1-.032.016-.032.016-.006.009-.01.006-.009.006-.006.009-.032.016-.032.016-.006.009-.01.006-.009.006-.006.009-.006.009-.01.006-.01.006-.006.009h.158l.886-.19A15.863,15.863,0,0,0,33.857,3.8l.855-.285.095-.032.047-.016.032-.016.032-.016.032-.016.032-.016.063-.009.063-.006v.063l-.016.006-.016.009-.006.009-.01.006-.01.006-.006.009-.006.009-.01.006-.009.006-.006.009-.006.009L35,3.546l-.016.032-.016.032-.01.006-.4.538a4.449,4.449,0,0,1-.427.538q-.032.009-.089.095a9.074,9.074,0,0,1-.671.706,15.933,15.933,0,0,1-1.209,1.1,1.5,1.5,0,0,0-.6,1.19q-.009.7-.073,1.589t-.237,1.915a22.834,22.834,0,0,1-.538,2.327,21.153,21.153,0,0,1-.886,2.533,19.731,19.731,0,0,1-1.092,2.216q-.57.981-1.045,1.662T26.719,21.3q-.491.6-1.241,1.355t-.823.823q-.073.07-.621.519t-1.171.905a13.55,13.55,0,0,1-1.146.75q-.522.3-1.26.687a14.99,14.99,0,0,1-1.589.722q-.855.332-1.8.617a16.483,16.483,0,0,1-1.836.443q-.886.158-2.01.269l-1.124.111v.016H10.035v-.016l-.269-.016q-.269-.016-.443-.032t-1.314-.174q-1.14-.158-1.789-.317t-1.931-.6a18.789,18.789,0,0,1-2.194-.9q-.909-.45-1.14-.57T.443,25.61l-.285-.174-.006-.009-.01-.006-.009-.006L.127,25.4l-.032-.016-.032-.016-.006-.009-.01-.006-.009-.006-.006-.009-.006-.009-.01-.006H0v-.063l.032.006.032.009.142.016q.142.016.776.047t1.345,0A14.154,14.154,0,0,0,3.783,25.2a16.407,16.407,0,0,0,1.757-.38A12.981,12.981,0,0,0,7.4,24.179q.845-.374,1.2-.557a11.712,11.712,0,0,0,1.083-.671l.728-.491.006-.009.009-.006.01-.006.006-.009.006-.009.009-.006.01-.006.006-.009.032-.009.032-.006.006-.032.009-.032.01-.006.006-.009-.253-.016-.491-.032a4.759,4.759,0,0,1-.744-.142,7.141,7.141,0,0,1-1.092-.38,8.42,8.42,0,0,1-1.14-.6,5.609,5.609,0,0,1-.8-.579q-.244-.228-.633-.646a6.405,6.405,0,0,1-.671-.864A7.765,7.765,0,0,1,4.2,18.019l-.263-.576L3.925,17.4l-.016-.047L3.9,17.316l-.006-.032.047.006.047.009.348.047a7.738,7.738,0,0,0,1.092.032,8.456,8.456,0,0,0,1.029-.063q.285-.047.348-.063l.063-.016.079-.016.079-.016.006-.009.009-.006.01-.006.006-.009L7,17.158l-.063-.016-.063-.016-.063-.016-.063-.016q-.063-.016-.222-.063t-.855-.348A6.536,6.536,0,0,1,4.559,16.1a7.651,7.651,0,0,1-.785-.624,8.959,8.959,0,0,1-.814-.88,6.332,6.332,0,0,1-.791-1.25,7.6,7.6,0,0,1-.522-1.361,7.349,7.349,0,0,1-.228-1.314L1.361,10l.032.006.032.009.032.016.032.016.032.016.032.016.491.222a6.191,6.191,0,0,0,1.219.38q.728.158.871.174l.142.016h.285l-.006-.009-.01-.006-.009-.006-.006-.009-.006-.009-.01-.006L4.5,10.82,4.5,10.811l-.032-.016-.032-.016-.006-.009-.01-.006-.009-.006L4.4,10.747l-.032-.016-.032-.016-.006-.009-.272-.2a4.151,4.151,0,0,1-.545-.516q-.285-.317-.57-.665a5.133,5.133,0,0,1-.507-.744,9.018,9.018,0,0,1-.469-1.007A7.146,7.146,0,0,1,1.6,6.347a6.974,6.974,0,0,1-.142-1.219A7.674,7.674,0,0,1,1.488,4.1a6.724,6.724,0,0,1,.19-.966,7.523,7.523,0,0,1,.412-1.14l.269-.6.016-.047L2.39,1.3l.01-.006.006-.009.006-.009.009-.006.01.006.006.009.006.009.009.006.01.006.006.009.006.009.009.006.016.032.016.032.01.006.006.009.427.475q.427.475,1.013,1.06a5.953,5.953,0,0,0,.649.608A.464.464,0,0,1,4.78,3.7a6.462,6.462,0,0,0,.633.56q.538.443,1.409,1.029T8.753,6.442a18.842,18.842,0,0,0,2.279,1.029q1.219.459,1.709.6t1.678.364q1.187.222,1.789.285t.823.073l.222.006-.006-.047-.01-.047-.063-.4A7.439,7.439,0,0,1,17.111,7.2a7.265,7.265,0,0,1,.111-1.314,7.781,7.781,0,0,1,.332-1.219,6.51,6.51,0,0,1,.434-.991,9.747,9.747,0,0,1,.563-.845,6.826,6.826,0,0,1,.9-.981A6.657,6.657,0,0,1,20.72.95a8.232,8.232,0,0,1,1.314-.6A6.122,6.122,0,0,1,23.046.079a3.521,3.521,0,0,0,.412-.073Z" fill="#fff"/>
</svg>
