<svg xmlns="http://www.w3.org/2000/svg" width="44.135" height="43.242" viewBox="0 0 44.135 43.242">
  <g id="Group_272" data-name="Group 272" transform="translate(-8.882 -9.1)">
    <g id="graphic-design-software" transform="translate(8.882 9.1)">
      <g id="Group_271" data-name="Group 271">
        <g id="Group_255" data-name="Group 255" transform="translate(34.241 14.926)">
          <g id="Group_253" data-name="Group 253">
            <g id="Group_252" data-name="Group 252">
              <path id="Path_666" data-name="Path 666" d="M396.084,187.3v5.986a1.014,1.014,0,0,1-1.014,1.014H387.2a1.014,1.014,0,0,1-1.014-1.014v-7.866A1.014,1.014,0,0,1,387.2,184.4h5.987Z" transform="translate(-386.19 -184.402)" fill="#157dbc"/>
              <path id="Path_667" data-name="Path 667" d="M463.956,187.3h-1.879a1.014,1.014,0,0,1-1.014-1.014V184.4Z" transform="translate(-454.062 -184.402)" fill="#3f5d77"/>
            </g>
          </g>
          <g id="Group_254" data-name="Group 254" transform="translate(1.689 2.942)">
            <path id="Path_668" data-name="Path 668" d="M404.364,220.279a.408.408,0,0,1-.111-.3v-3.72a.381.381,0,0,1,.1-.286.4.4,0,0,1,.289-.1h1.564a1.618,1.618,0,0,1,1.119.359,1.471,1.471,0,0,1,0,2.019,1.608,1.608,0,0,1-1.119.362h-1.138v1.367A.418.418,0,0,1,404.364,220.279Zm1.745-2.3q.846,0,.846-.738t-.846-.738h-1.036v1.475h1.036Z" transform="translate(-404.253 -215.869)" fill="#fff"/>
            <path id="Path_669" data-name="Path 669" d="M445.243,232.684a.375.375,0,0,1-.134-.55c.143-.142.27-.074.471.022a1.446,1.446,0,0,0,1.218.108.278.278,0,0,0,.089-.42,1.688,1.688,0,0,0-.69-.242c-.622-.144-1.033-.287-1.056-.9.012-.864,1.089-1.122,1.793-.912a1.565,1.565,0,0,1,.445.194c.338.169.23.773-.175.607a1.684,1.684,0,0,0-.817-.277.64.64,0,0,0-.372.1.3.3,0,0,0,0,.5c.4.206,1.305.213,1.555.655a.879.879,0,0,1-.254,1.132A2.152,2.152,0,0,1,445.243,232.684Z" transform="translate(-441.224 -228.424)" fill="#fff"/>
          </g>
        </g>
        <g id="Group_259" data-name="Group 259" transform="translate(0 14.926)">
          <g id="Group_257" data-name="Group 257">
            <g id="Group_256" data-name="Group 256">
              <path id="Path_670" data-name="Path 670" d="M29.893,187.3v5.986a1.014,1.014,0,0,1-1.014,1.014H21.013A1.014,1.014,0,0,1,20,193.282v-7.866a1.014,1.014,0,0,1,1.014-1.014H27Z" transform="translate(-19.999 -184.402)" fill="#ea792e"/>
              <path id="Path_671" data-name="Path 671" d="M97.764,187.3H95.885a1.014,1.014,0,0,1-1.014-1.014V184.4Z" transform="translate(-87.87 -184.402)" fill="#dd5e26"/>
            </g>
          </g>
          <g id="Group_258" data-name="Group 258" transform="translate(1.346 2.841)">
            <path id="Path_672" data-name="Path 672" d="M38.835,219.674a.384.384,0,0,1-.579.3.36.36,0,0,1-.14-.169l-.382-.852H35.5l-.382.852a.382.382,0,0,1-.725-.127.392.392,0,0,1,.038-.165l1.755-3.77a.48.48,0,0,1,.852,0l1.761,3.77A.392.392,0,0,1,38.835,219.674Zm-3.058-1.361h1.679l-.839-1.888Z" transform="translate(-34.391 -215.413)" fill="#fff"/>
            <path id="Path_673" data-name="Path 673" d="M87.079,215.508a.433.433,0,0,1,0-.614.567.567,0,0,1,.684,0,.43.43,0,0,1,0,.613A.559.559,0,0,1,87.079,215.508Zm.06,3.8a.358.358,0,0,1-.111-.283v-2.454c-.032-.5.824-.5.795,0v2.454C87.848,219.383,87.373,219.512,87.14,219.3Z" transform="translate(-82.037 -214.78)" fill="#fff"/>
          </g>
        </g>
        <g id="Group_263" data-name="Group 263" transform="translate(17.121)">
          <g id="Group_261" data-name="Group 261">
            <g id="Group_260" data-name="Group 260">
              <path id="Path_674" data-name="Path 674" d="M212.989,27.669v5.986a1.014,1.014,0,0,1-1.014,1.014h-7.866a1.014,1.014,0,0,1-1.014-1.014V25.79a1.014,1.014,0,0,1,1.014-1.014H210.1Z" transform="translate(-203.095 -24.776)" fill="#e9465e"/>
              <path id="Path_675" data-name="Path 675" d="M280.86,27.669h-1.879a1.014,1.014,0,0,1-1.014-1.014V24.776Z" transform="translate(-270.966 -24.776)" fill="#c0405c"/>
            </g>
          </g>
          <g id="Group_262" data-name="Group 262" transform="translate(1.689 2.91)">
            <path id="Path_676" data-name="Path 676" d="M221.266,60.343a.41.41,0,0,1-.111-.3V56.311a.41.41,0,0,1,.82,0v3.732A.417.417,0,0,1,221.266,60.343Z" transform="translate(-221.154 -55.904)" fill="#fff"/>
            <path id="Path_677" data-name="Path 677" d="M240.739,56a.341.341,0,0,1,.114.267v3.8a.358.358,0,0,1-.108.273c-.227.213-.706.083-.68-.273v-.159a1.23,1.23,0,0,1-1.72.35,1.642,1.642,0,0,1-.664-1.431,1.592,1.592,0,0,1,.661-1.405,1.249,1.249,0,0,1,1.717.337V56.252C240.039,55.9,240.517,55.793,240.739,56Zm-.881,3.586a1.436,1.436,0,0,0,0-1.485.7.7,0,0,0-.582-.258c-.568,0-.8.42-.8.986a1.188,1.188,0,0,0,.21.75A.783.783,0,0,0,239.859,59.584Z" transform="translate(-236.136 -55.895)" fill="#fff"/>
          </g>
        </g>
        <g id="Group_267" data-name="Group 267" transform="translate(17.121 33.348)">
          <g id="Group_265" data-name="Group 265">
            <g id="Group_264" data-name="Group 264">
              <path id="Path_678" data-name="Path 678" d="M212.989,384.307v5.986a1.014,1.014,0,0,1-1.014,1.014h-7.866a1.014,1.014,0,0,1-1.014-1.014v-7.866a1.014,1.014,0,0,1,1.014-1.014H210.1Z" transform="translate(-203.095 -381.414)" fill="#c840cc"/>
              <path id="Path_679" data-name="Path 679" d="M280.86,384.306h-1.879a1.014,1.014,0,0,1-1.014-1.014v-1.879Z" transform="translate(-270.966 -381.413)" fill="#a628ad"/>
            </g>
          </g>
          <g id="Group_266" data-name="Group 266" transform="translate(1.171 3.097)">
            <path id="Path_680" data-name="Path 680" d="M219.538,418.726a.379.379,0,0,1-.668.242l-1.291-1.6-1.3,1.6a.378.378,0,0,1-.661-.242.372.372,0,0,1,.1-.242l1.386-1.691-1.329-1.621a.341.341,0,0,1-.1-.242.374.374,0,0,1,.661-.235l1.24,1.532,1.24-1.532a.375.375,0,0,1,.661.235.341.341,0,0,1-.1.242l-1.329,1.621,1.38,1.691A.377.377,0,0,1,219.538,418.726Z" transform="translate(-215.621 -414.554)" fill="#fff"/>
            <path id="Path_681" data-name="Path 681" d="M264.239,414.635a.34.34,0,0,1,.114.267v3.8a.358.358,0,0,1-.108.273c-.227.213-.706.083-.68-.273v-.159a1.23,1.23,0,0,1-1.72.35,1.641,1.641,0,0,1-.664-1.431,1.591,1.591,0,0,1,.661-1.405,1.249,1.249,0,0,1,1.717.337V414.89C263.539,414.54,264.017,414.431,264.239,414.635Zm-.881,3.586a1.436,1.436,0,0,0,0-1.485.7.7,0,0,0-.582-.258c-.568,0-.8.42-.8.986a1.188,1.188,0,0,0,.21.75A.783.783,0,0,0,263.359,418.222Z" transform="translate(-256.921 -414.533)" fill="#fff"/>
          </g>
        </g>
        <g id="Group_268" data-name="Group 268" transform="translate(9.894 9.894)">
          <path id="Path_682" data-name="Path 682" d="M335.492,242.242h4.741v.935h-4.741Z" transform="translate(-315.885 -231.801)" fill="#fff"/>
          <path id="Path_683" data-name="Path 683" d="M125.809,242.242h4.741v.935h-4.741Z" transform="translate(-125.809 -231.801)" fill="#fff"/>
          <path id="Path_684" data-name="Path 684" d="M0,0H4.741V.935H0Z" transform="translate(11.706 4.741) rotate(-90)" fill="#fff"/>
          <path id="Path_685" data-name="Path 685" d="M0,0H4.741V.935H0Z" transform="translate(11.706 23.454) rotate(-90)" fill="#fff"/>
        </g>
        <g id="Group_270" data-name="Group 270" transform="translate(13.542 13.608)">
          <path id="Path_686" data-name="Path 686" d="M238.036,281.485h-2.41a.772.772,0,0,0-.772.772v3.182h3.955v-3.182A.772.772,0,0,0,238.036,281.485Z" transform="translate(-228.306 -271.089)" fill="#334353"/>
          <path id="Path_687" data-name="Path 687" d="M208.487,323.777h-9.061a.838.838,0,1,0,0,1.676h9.061a.838.838,0,0,0,0-1.676Z" transform="translate(-195.431 -309.426)" fill="#334353"/>
          <path id="Path_688" data-name="Path 688" d="M226.705,323.777h-5.587a.517.517,0,1,0,0,1.033h5.587a.517.517,0,0,0,0-1.033Z" transform="translate(-215.386 -309.426)" fill="#3e4e60"/>
          <path id="Path_689" data-name="Path 689" d="M181.876,171.585v9.453a1.286,1.286,0,0,1-.933,1.234,1.256,1.256,0,0,1-.347.049h-14.49a1.24,1.24,0,0,1-.347-.049,1.286,1.286,0,0,1-.933-1.234v-9.453a1.282,1.282,0,0,1,1.281-1.281H180.6a1.264,1.264,0,0,1,.347.048,1.281,1.281,0,0,1,.933,1.232Z" transform="translate(-164.825 -170.304)" fill="#3f5d77"/>
          <path id="Path_690" data-name="Path 690" d="M166.692,172.052v9.453a.939.939,0,1,1-1.868,0v-9.453a.97.97,0,1,1,1.868,0Z" transform="translate(-164.825 -170.772)" fill="#3e4e60"/>
          <path id="Path_691" data-name="Path 691" d="M329.071,172.052v9.453a.939.939,0,1,1-1.868,0v-9.453a.97.97,0,1,1,1.868,0Z" transform="translate(-312.02 -170.772)" fill="#3f6c8e"/>
          <path id="Path_692" data-name="Path 692" d="M181.876,270.556v1.36a1.286,1.286,0,0,1-.933,1.234,1.254,1.254,0,0,1-.347.049h-14.49a1.239,1.239,0,0,1-.347-.049,1.286,1.286,0,0,1-.933-1.234v-1.36Z" transform="translate(-164.825 -261.182)" fill="#3e4e60"/>
          <path id="Path_693" data-name="Path 693" d="M166.692,270.556v1.36a.939.939,0,1,1-1.868,0v-1.36Z" transform="translate(-164.825 -261.182)" fill="#334353"/>
          <path id="Path_694" data-name="Path 694" d="M329.071,270.556v1.36a.939.939,0,1,1-1.868,0v-1.36Z" transform="translate(-312.02 -261.182)" fill="#3f5d77"/>
          <path id="Path_695" data-name="Path 695" d="M242.521,284.686h-2.04a.476.476,0,1,0,0,.952h2.04a.476.476,0,1,0,0-.952Z" transform="translate(-232.975 -273.991)" fill="#334353"/>
          <path id="Path_696" data-name="Path 696" d="M233.305,171.238h-6.069a.467.467,0,1,1,0-.934h6.069a.467.467,0,0,1,0,.934Z" transform="translate(-220.978 -170.304)" fill="#3f6c8e"/>
          <g id="Group_269" data-name="Group 269" transform="translate(0.934 0.934)">
            <path id="Path_697" data-name="Path 697" d="M189.187,189.707H175.621a.809.809,0,0,1-.809-.809v-7.8a.809.809,0,0,1,.809-.809h13.566a.809.809,0,0,1,.809.809v7.8A.808.808,0,0,1,189.187,189.707Z" transform="translate(-174.812 -180.291)" fill="#7ed0fc"/>
          </g>
        </g>
      </g>
    </g>
  </g>
</svg>
