<svg xmlns="http://www.w3.org/2000/svg" width="34" height="51.828" viewBox="0 0 34 51.828">
  <g id="Group_605" data-name="Group 605" transform="translate(1.166 1.5)">
    <circle id="Ellipse_22" data-name="Ellipse 22" cx="15.5" cy="15.5" r="15.5" transform="translate(0.334 9)" fill="none" stroke="#333" stroke-linecap="round" stroke-linejoin="round" stroke-width="3"/>
    <path id="Path_3570" data-name="Path 3570" d="M12,9v6.658l3.329,3.329" transform="translate(3.536 8.756)" fill="none" stroke="#333" stroke-linecap="round" stroke-linejoin="round" stroke-width="3"/>
    <path id="Path_3571" data-name="Path 3571" d="M27.522,37.288l-.777,8.5a4.439,4.439,0,0,1-4.439,4.039H12.7a4.439,4.439,0,0,1-4.439-4.039l-.777-8.5M7.5,13.54l.777-8.5A4.439,4.439,0,0,1,12.7,1H22.35a4.439,4.439,0,0,1,4.439,4.039l.777,8.5" transform="translate(-1.976 -1)" fill="none" stroke="#333" stroke-linecap="round" stroke-linejoin="round" stroke-width="3"/>
  </g>
</svg>
