<svg xmlns="http://www.w3.org/2000/svg" xmlns:xlink="http://www.w3.org/1999/xlink" width="41.364" height="41.365" viewBox="0 0 41.364 41.365">
  <defs>
    <clipPath id="clip-path">
      <path id="Path_4744" data-name="Path 4744" d="M0,0H41.364V41.365H0Z"/>
    </clipPath>
  </defs>
  <g id="wordpress-blue" clip-path="url(#clip-path)">
    <path id="Path_4739" data-name="Path 4739" d="M190.166,40.36H182.99v.761c2.245,0,2.606.481,2.606,3.327v5.132c0,2.846-.36,3.368-2.606,3.368-1.723-.241-2.887-1.163-4.49-2.927l-1.844-2c2.485-.442,3.808-2,3.808-3.769,0-2.2-1.884-3.889-5.412-3.889H168v.761c2.245,0,2.606.481,2.606,3.327v5.132c0,2.846-.361,3.368-2.606,3.368v.762h7.978v-.762c-2.244,0-2.606-.522-2.606-3.368V48.139h.682l4.45,5.572h11.667c5.733,0,8.219-3.047,8.219-6.7S195.9,40.36,190.166,40.36Zm-16.8,6.534V41.563h1.643a2.667,2.667,0,0,1,0,5.332Zm16.918,5.573h-.281c-1.443,0-1.643-.36-1.643-2.2v-8.7h1.924c4.169,0,4.93,3.047,4.93,5.412C195.217,49.421,194.456,52.468,190.287,52.468Zm-44.621-4.089,2.766-8.18c.8-2.365.442-3.046-2.125-3.046v-.8h7.537v.8c-2.525,0-3.127.6-4.129,3.528l-4.571,13.712h-.521l-4.09-12.549-4.169,12.549h-.522l-4.45-13.711c-.962-2.927-1.6-3.528-3.929-3.528v-.8h8.9v.8c-2.366,0-3.007.561-2.165,3.046l2.686,8.18,4.049-12.028h.762ZM159.3,54.232c-4.41,0-8.018-3.247-8.018-7.217,0-3.929,3.608-7.176,8.018-7.176s8.018,3.247,8.018,7.176C167.314,50.985,163.706,54.232,159.3,54.232Zm0-13.149c-3.688,0-4.972,3.327-4.972,5.933,0,2.646,1.284,5.934,4.972,5.934,3.729,0,5.012-3.287,5.012-5.934,0-2.606-1.283-5.933-5.012-5.933Z" transform="translate(-84.431 -24.079)" fill="#00749a"/>
    <path id="Path_4740" data-name="Path 4740" d="M348.851,52.908v.8H339.67v-.8c2.686,0,3.167-.682,3.167-4.691V41.8c0-4.01-.481-4.651-3.167-4.651v-.8h8.3c4.129,0,6.415,2.125,6.415,4.972,0,2.766-2.286,4.931-6.415,4.931h-2.286v1.964c0,4.01.481,4.691,3.168,4.691Zm-.882-15.115h-2.286V44.77h2.286a3.133,3.133,0,0,0,3.287-3.448C351.256,39.4,350.214,37.793,347.969,37.793Zm33.957,12.148-.2.721c-.36,1.323-.8,1.8-3.648,1.8h-.561c-2.084,0-2.445-.481-2.445-3.327V47.3c3.127,0,3.368.28,3.368,2.365h.762V43.687h-.762c0,2.085-.241,2.365-3.368,2.365v-4.49h2.2c2.847,0,3.288.481,3.648,1.8l.2.762h.641l-.28-3.768H369.7v.761c2.245,0,2.606.481,2.606,3.327v5.132c0,2.6-.306,3.26-2.076,3.354-1.682-.257-2.837-1.175-4.418-2.913l-1.844-2c2.486-.442,3.809-2,3.809-3.769,0-2.2-1.884-3.889-5.412-3.889h-7.056v.761c2.245,0,2.606.481,2.606,3.327v5.132c0,2.846-.361,3.368-2.606,3.368v.762h7.978v-.762c-2.244,0-2.606-.522-2.606-3.368V48.138h.682l4.45,5.572h16.477l.241-3.768h-.6Zm-21.248-3.048V41.563h1.643a2.667,2.667,0,0,1,0,5.332Zm29.386,7.337a5.927,5.927,0,0,1-3.608-1.363,2.877,2.877,0,0,0-.641,1.363h-.762V48.7h.8a4.449,4.449,0,0,0,4.53,4.21,2.064,2.064,0,0,0,2.325-1.924c0-1.042-.922-1.844-2.566-2.606L387.859,47.3a4.363,4.363,0,0,1-2.806-3.849c0-1.924,1.8-3.568,4.29-3.568a5.021,5.021,0,0,1,3.127,1.043,2.265,2.265,0,0,0,.521-1.083h.762V44.57h-.842c-.281-1.885-1.323-3.448-3.448-3.448-1.123,0-2.165.641-2.165,1.644,0,1.042.842,1.6,2.766,2.485l2.2,1.082a4.183,4.183,0,0,1,2.686,3.609C394.955,52.467,392.75,54.231,390.064,54.231Zm12.348,0a5.925,5.925,0,0,1-3.608-1.363,2.877,2.877,0,0,0-.641,1.363H397.4V48.7h.8a4.448,4.448,0,0,0,4.53,4.21,2.064,2.064,0,0,0,2.325-1.924c0-1.042-.922-1.844-2.566-2.606L400.207,47.3a4.363,4.363,0,0,1-2.806-3.849c0-1.924,1.8-3.568,4.29-3.568a5.022,5.022,0,0,1,3.127,1.043,2.261,2.261,0,0,0,.521-1.083h.762V44.57h-.842c-.281-1.885-1.323-3.448-3.448-3.448-1.123,0-2.165.641-2.165,1.644,0,1.042.842,1.6,2.767,2.485l2.2,1.082a4.183,4.183,0,0,1,2.686,3.609C407.3,52.467,405.1,54.231,402.412,54.231Z" transform="translate(-224.995 -24.078)" fill="#464342"/>
    <g id="Group_839" data-name="Group 839">
      <path id="Path_4741" data-name="Path 4741" d="M8.708,26.45a17.746,17.746,0,0,0,10,15.968L10.244,19.229A17.675,17.675,0,0,0,8.708,26.45Zm29.72-.9a9.341,9.341,0,0,0-1.463-4.893c-.9-1.461-1.742-2.7-1.742-4.161A3.072,3.072,0,0,1,38.2,13.351c.079,0,.153.01.23.014a17.739,17.739,0,0,0-26.806,3.34c.416.012.809.021,1.142.021,1.856,0,4.729-.225,4.729-.225a.733.733,0,0,1,.114,1.461s-.962.113-2.031.169L22.041,37.35,25.924,25.7l-2.765-7.574c-.955-.056-1.861-.169-1.861-.169a.733.733,0,0,1,.112-1.461s2.93.225,4.673.225c1.855,0,4.729-.225,4.729-.225a.733.733,0,0,1,.114,1.461s-.963.113-2.031.169L35.308,37.2l1.769-5.914A21.423,21.423,0,0,0,38.428,25.555Z" transform="translate(-5.768 -5.768)" fill="#00749a"/>
      <path id="Path_4742" data-name="Path 4742" d="M51.739,46.11,46.416,61.579a17.747,17.747,0,0,0,10.9-.283,1.5,1.5,0,0,1-.126-.244ZM67,36.046a13.616,13.616,0,0,1,.12,1.824,16.737,16.737,0,0,1-1.349,6.355l-5.42,15.669A17.746,17.746,0,0,0,67,36.046Z" transform="translate(-30.746 -23.877)" fill="#00749a"/>
      <path id="Path_4743" data-name="Path 4743" d="M20.682,0A20.682,20.682,0,1,0,41.366,20.682,20.706,20.706,0,0,0,20.682,0Zm0,40.417A19.734,19.734,0,1,1,40.415,20.682,19.757,19.757,0,0,1,20.682,40.417Z" fill="#00749a"/>
    </g>
  </g>
</svg>
